<svg width="170" height="47" viewBox="0 0 170 47" fill="none" xmlns="http://www.w3.org/2000/svg">
<path d="M59.72 11.352H68.264C70.952 11.352 72.9893 12.1093 74.376 13.624C75.7413 15.1173 76.424 16.9307 76.424 19.064C76.424 21.24 75.7093 23.0427 74.28 24.472C72.872 25.9227 70.7493 26.648 67.912 26.648H64.072V35H59.72V11.352ZM64.072 22.648H68.04C69.2773 22.648 70.2373 22.3067 70.92 21.624C71.624 20.92 71.976 20.0453 71.976 19C71.976 17.9547 71.6453 17.1013 70.984 16.44C70.344 15.7573 69.4693 15.416 68.36 15.416H64.072V22.648ZM78.0583 26.296C78.0583 23.736 78.9223 21.5813 80.6503 19.832C82.4209 18.0613 84.6503 17.176 87.3383 17.176C90.0476 17.176 92.2663 18.0613 93.9943 19.832C95.7436 21.5813 96.6183 23.736 96.6183 26.296C96.6183 28.8987 95.7436 31.0747 93.9943 32.824C92.2663 34.5733 90.0476 35.448 87.3383 35.448C84.6289 35.448 82.3996 34.5733 80.6503 32.824C78.9223 31.0747 78.0583 28.8987 78.0583 26.296ZM92.4263 26.296C92.4263 24.824 91.9356 23.5867 90.9543 22.584C89.9516 21.56 88.7463 21.048 87.3383 21.048C85.9303 21.048 84.7249 21.56 83.7223 22.584C82.7409 23.5867 82.2503 24.824 82.2503 26.296C82.2503 27.7893 82.7409 29.0373 83.7223 30.04C84.7249 31.064 85.9303 31.576 87.3383 31.576C88.7463 31.576 89.9516 31.064 90.9543 30.04C91.9356 29.0373 92.4263 27.7893 92.4263 26.296ZM109.717 17.208C112.171 17.208 114.219 18.0933 115.861 19.864C117.483 21.6133 118.293 23.7573 118.293 26.296C118.293 28.856 117.472 31.0213 115.829 32.792C114.208 34.5413 112.16 35.416 109.685 35.416C107.467 35.416 105.6 34.552 104.085 32.824V42.136H99.8932V17.624H104.053V19.928C105.547 18.1147 107.435 17.208 109.717 17.208ZM103.989 26.328C103.989 27.8 104.459 29.0587 105.397 30.104C106.336 31.1067 107.552 31.608 109.045 31.608C110.539 31.608 111.755 31.1067 112.693 30.104C113.632 29.0587 114.101 27.8 114.101 26.328C114.101 24.8347 113.632 23.5867 112.693 22.584C111.755 21.56 110.539 21.048 109.045 21.048C107.552 21.048 106.336 21.56 105.397 22.584C104.459 23.6293 103.989 24.8773 103.989 26.328ZM131.405 17.208C133.858 17.208 135.906 18.0933 137.549 19.864C139.17 21.6133 139.981 23.7573 139.981 26.296C139.981 28.856 139.159 31.0213 137.517 32.792C135.895 34.5413 133.847 35.416 131.373 35.416C129.154 35.416 127.287 34.552 125.773 32.824V42.136H121.581V17.624H125.741V19.928C127.234 18.1147 129.122 17.208 131.405 17.208ZM125.677 26.328C125.677 27.8 126.146 29.0587 127.085 30.104C128.023 31.1067 129.239 31.608 130.733 31.608C132.226 31.608 133.442 31.1067 134.381 30.104C135.319 29.0587 135.789 27.8 135.789 26.328C135.789 24.8347 135.319 23.5867 134.381 22.584C133.442 21.56 132.226 21.048 130.733 21.048C129.239 21.048 128.023 21.56 127.085 22.584C126.146 23.6293 125.677 24.8773 125.677 26.328ZM145.476 15.544C144.708 15.544 144.068 15.2987 143.556 14.808C143.044 14.3173 142.788 13.688 142.788 12.92C142.788 12.1733 143.044 11.5547 143.556 11.064C144.09 10.552 144.73 10.296 145.476 10.296C146.223 10.296 146.842 10.552 147.332 11.064C147.844 11.5547 148.1 12.1733 148.1 12.92C148.1 13.688 147.844 14.3173 147.332 14.808C146.842 15.2987 146.223 15.544 145.476 15.544ZM147.524 17.624V35H143.332V17.624H147.524ZM168.378 25.944C168.378 26.4987 168.336 27.1173 168.251 27.8H155.003C155.28 29.0373 155.867 30.0187 156.763 30.744C157.68 31.448 158.864 31.8 160.315 31.8C162.427 31.8 164.336 31.2027 166.043 30.008L167.707 32.984C165.552 34.584 163.035 35.384 160.155 35.384C158.576 35.384 157.168 35.128 155.931 34.616C154.715 34.104 153.733 33.4213 152.987 32.568C152.24 31.6933 151.675 30.7333 151.291 29.688C150.928 28.6213 150.747 27.4907 150.747 26.296C150.747 23.6507 151.579 21.4853 153.243 19.8C154.928 18.072 157.104 17.208 159.771 17.208C162.267 17.208 164.325 17.9973 165.947 19.576C167.568 21.1333 168.378 23.256 168.378 25.944ZM159.771 20.696C158.555 20.696 157.52 21.048 156.667 21.752C155.835 22.456 155.28 23.416 155.003 24.632H164.283C164.112 23.416 163.611 22.456 162.779 21.752C161.968 21.048 160.965 20.696 159.771 20.696Z" fill="black"/>
<path d="M22.6531 10.9177C26.015 12.2332 29.611 9.5772 27.7657 6.47444C27.5453 6.10397 27.307 5.74954 27.0515 5.41351C25.3896 3.22788 23.1356 2 20.7852 2C18.4349 2 16.1809 3.22788 14.5189 5.41351C14.2634 5.74954 14.0251 6.10397 13.8048 6.47444C11.9594 9.5772 15.5555 12.2332 18.9173 10.9177V10.9177C20.1183 10.4478 21.4522 10.4478 22.6531 10.9177V10.9177Z" fill="url(#paint0_linear_486_81)"/>
<path d="M9.62537 20.5688C11.0346 17.0468 8.27002 13.2526 4.96683 15.118C4.51581 15.3728 4.08601 15.6512 3.68102 15.9524C1.3241 17.705 2.51648e-07 20.0821 0 22.5607C-2.51648e-07 25.0393 1.3241 27.4164 3.68102 29.169C4.08601 29.4702 4.51581 29.7486 4.96682 30.0034C8.27002 31.8688 11.0346 28.0746 9.62537 24.5526V24.5526C9.11375 23.2739 9.11375 21.8475 9.62537 20.5688V20.5688Z" fill="url(#paint1_linear_486_81)"/>
<path d="M18.9553 34.1291C15.5623 32.7068 11.8536 35.3364 13.5183 38.6173C13.8082 39.1886 14.1327 39.7291 14.4898 40.2323C16.2021 42.6447 18.5244 44 20.946 44C23.3675 44 25.6899 42.6447 27.4022 40.2323C27.7593 39.7291 28.0837 39.1886 28.3736 38.6173C30.0384 35.3364 26.3296 32.7068 22.9367 34.1291V34.1291C21.6632 34.663 20.2287 34.663 18.9553 34.1291V34.1291Z" fill="url(#paint2_linear_486_81)"/>
<path d="M32.3746 24.6616C30.9654 28.1837 33.73 31.9779 37.0332 30.1124C37.4842 29.8577 37.914 29.5792 38.319 29.2781C40.6759 27.5254 42 25.1484 42 22.6698C42 20.1912 40.6759 17.8141 38.319 16.0615C37.914 15.7603 37.4842 15.4818 37.0332 15.2271C33.73 13.3617 30.9654 17.1558 32.3746 20.6779V20.6779C32.8862 21.9565 32.8862 23.383 32.3746 24.6616V24.6616Z" fill="url(#paint3_linear_486_81)"/>
<defs>
<linearGradient id="paint0_linear_486_81" x1="20.7852" y1="2" x2="20.7852" y2="13.6544" gradientUnits="userSpaceOnUse">
<stop stop-color="#204DD9"/>
<stop offset="1" stop-color="#756AFE"/>
</linearGradient>
<linearGradient id="paint1_linear_486_81" x1="0" y1="22.5607" x2="12.5678" y2="22.5607" gradientUnits="userSpaceOnUse">
<stop stop-color="#204DD9"/>
<stop offset="1" stop-color="#756AFE"/>
</linearGradient>
<linearGradient id="paint2_linear_486_81" x1="20.946" y1="44" x2="20.946" y2="31.1361" gradientUnits="userSpaceOnUse">
<stop stop-color="#204DD9"/>
<stop offset="1" stop-color="#756AFE"/>
</linearGradient>
<linearGradient id="paint3_linear_486_81" x1="42" y1="22.6698" x2="29.4322" y2="22.6698" gradientUnits="userSpaceOnUse">
<stop stop-color="#204DD9"/>
<stop offset="1" stop-color="#756AFE"/>
</linearGradient>
</defs>
</svg>