<svg width="41" height="40" viewBox="0 0 41 40" fill="none" xmlns="http://www.w3.org/2000/svg">
<path d="M21.7093 8.49079C24.938 9.74601 28.3844 7.19024 26.5939 4.2248C26.3888 3.88521 26.1677 3.55991 25.9313 3.25096C24.3382 1.16941 22.1776 2.22248e-07 19.9246 0C17.6717 -2.22248e-07 15.511 1.16941 13.918 3.25096C13.6815 3.55991 13.4605 3.88521 13.2554 4.2248C11.4649 7.19024 14.9113 9.74601 18.1399 8.49079C19.2879 8.0445 20.5614 8.0445 21.7093 8.49079Z" fill="url(#paint0_linear_382_298)"/>
<path d="M9.22899 17.6781C10.5773 14.3302 7.95421 10.7163 4.80028 12.471C4.35362 12.7195 3.92844 12.9921 3.52849 13.2875C1.26924 14.9567 2.41221e-07 17.2206 0 19.5812C-2.41221e-07 21.9417 1.26924 24.2056 3.52849 25.8748C3.92844 26.1703 4.35362 26.4428 4.80028 26.6913C7.95421 28.446 10.5773 24.8321 9.22899 21.4843C8.73723 20.2632 8.73723 18.8992 9.22899 17.6781Z" fill="url(#paint1_linear_382_298)"/>
<path d="M18.1755 30.6016C14.9166 29.2443 11.3617 31.7743 12.9779 34.9128C13.2507 35.4425 13.555 35.944 13.889 36.4117C15.5304 38.7092 17.7565 40 20.0777 40C22.3989 40 24.6251 38.7092 26.2664 36.4117C26.6005 35.944 26.9047 35.4425 27.1775 34.9128C28.7937 31.7743 25.2388 29.2443 21.98 30.6016C20.7625 31.1087 19.3929 31.1087 18.1755 30.6016Z" fill="url(#paint2_linear_382_298)"/>
<path d="M31.0308 21.589C29.6825 24.9369 32.3056 28.5508 35.4595 26.7961C35.9061 26.5476 36.3313 26.275 36.7313 25.9795C38.9905 24.3104 40.2598 22.0465 40.2598 19.6859C40.2598 17.3254 38.9905 15.0615 36.7313 13.3923C36.3313 13.0968 35.9061 12.8242 35.4595 12.5757C32.3056 10.8211 29.6825 14.435 31.0308 17.7828C31.5225 19.0039 31.5225 20.3679 31.0308 21.589Z" fill="url(#paint3_linear_382_298)"/>
<defs>
<linearGradient id="paint0_linear_382_298" x1="19.9246" y1="0" x2="19.9246" y2="11.0995" gradientUnits="userSpaceOnUse">
<stop stop-color="#204DD9"/>
<stop offset="1" stop-color="#756AFE"/>
</linearGradient>
<linearGradient id="paint1_linear_382_298" x1="0" y1="19.5812" x2="12.047" y2="19.5812" gradientUnits="userSpaceOnUse">
<stop stop-color="#204DD9"/>
<stop offset="1" stop-color="#756AFE"/>
</linearGradient>
<linearGradient id="paint2_linear_382_298" x1="20.0777" y1="40" x2="20.0777" y2="27.7487" gradientUnits="userSpaceOnUse">
<stop stop-color="#204DD9"/>
<stop offset="1" stop-color="#756AFE"/>
</linearGradient>
<linearGradient id="paint3_linear_382_298" x1="40.2598" y1="19.6859" x2="28.2127" y2="19.6859" gradientUnits="userSpaceOnUse">
<stop stop-color="#204DD9"/>
<stop offset="1" stop-color="#756AFE"/>
</linearGradient>
</defs>
</svg>
