<?xml version="1.0" standalone="no"?>
<!DOCTYPE svg PUBLIC "-//W3C//DTD SVG 20010904//EN"
 "http://www.w3.org/TR/2001/REC-SVG-20010904/DTD/svg10.dtd">
<svg id="svg" version="1.1" xmlns="http://www.w3.org/2000/svg" xmlns:xlink="http://www.w3.org/1999/xlink" width="400" height="400" viewBox="0, 0, 400,400"><g id="svgg"><path id="path0" d="M80.800 148.400 L 80.800 156.000 81.920 156.000 C 82.536 156.000,83.220 155.820,83.439 155.601 C 83.701 155.339,110.033 155.167,160.019 155.101 L 236.200 155.000 236.309 147.900 L 236.418 140.800 158.609 140.800 L 80.800 140.800 80.800 148.400 M250.800 148.000 L 250.800 155.200 280.176 155.200 C 299.329 155.200,309.639 155.339,309.800 155.600 C 309.936 155.820,310.847 156.000,311.824 156.000 L 313.600 156.000 313.600 148.400 L 313.600 140.800 282.200 140.800 L 250.800 140.800 250.800 148.000 " stroke="none" fill="#cce4e4" fill-rule="evenodd"></path><path id="path1" d="M83.200 165.200 L 83.200 174.800 62.600 174.800 L 42.000 174.800 42.000 179.000 L 42.000 183.200 35.400 183.200 L 28.800 183.200 28.800 226.000 L 28.800 268.800 32.400 268.800 L 36.000 268.800 36.000 273.000 L 36.000 277.200 59.600 277.200 L 83.200 277.200 83.200 287.200 L 83.200 297.200 90.200 297.200 L 97.200 297.200 97.200 304.200 L 97.200 311.200 111.200 311.200 L 125.200 311.200 125.200 317.600 L 125.200 324.000 83.000 324.000 L 40.800 324.000 40.800 331.800 L 40.800 339.600 54.800 339.600 L 68.800 339.600 68.800 346.600 L 68.800 353.600 194.609 353.600 L 320.418 353.600 320.309 346.300 L 320.200 339.000 237.600 338.889 C 192.170 338.827,154.771 338.696,154.490 338.597 C 154.099 338.459,154.006 336.863,154.090 331.709 L 154.200 325.000 210.800 324.797 C 241.930 324.685,267.445 324.550,267.500 324.497 C 267.555 324.443,267.600 321.341,267.600 317.602 L 267.600 310.804 225.100 310.702 L 182.600 310.600 182.400 303.600 L 182.200 296.600 175.309 296.491 L 168.419 296.381 168.309 289.491 L 168.200 282.600 161.200 282.400 L 154.200 282.200 154.099 218.900 L 153.998 155.600 118.599 155.600 L 83.200 155.600 83.200 165.200 M83.200 226.000 L 83.200 260.800 63.000 260.800 L 42.800 260.800 42.800 226.000 L 42.800 191.200 63.000 191.200 L 83.200 191.200 83.200 226.000 M236.267 240.267 C 236.120 240.413,236.000 243.559,236.000 247.257 L 236.000 253.981 229.100 254.091 L 222.200 254.200 222.200 275.400 L 222.200 296.600 243.492 296.704 L 264.783 296.807 265.002 295.904 C 265.123 295.407,265.172 285.820,265.111 274.600 L 265.000 254.200 258.000 254.000 L 251.000 253.800 250.891 246.900 L 250.781 240.000 243.657 240.000 C 239.739 240.000,236.413 240.120,236.267 240.267 M250.491 247.300 L 250.600 254.200 257.500 254.309 L 264.400 254.419 264.400 275.413 L 264.400 296.407 243.500 296.304 L 222.600 296.200 222.600 275.400 L 222.600 254.600 229.600 254.376 C 233.450 254.253,236.645 254.118,236.700 254.076 C 236.755 254.034,236.800 250.940,236.800 247.200 L 236.800 240.400 243.591 240.400 L 250.381 240.400 250.491 247.300 " stroke="none" fill="#a42434" fill-rule="evenodd"></path><path id="path2" d="M236.800 247.200 C 236.800 250.940,236.755 254.034,236.700 254.076 C 236.645 254.118,233.450 254.253,229.600 254.376 L 222.600 254.600 222.600 275.400 L 222.600 296.200 243.500 296.304 L 264.400 296.407 264.400 275.413 L 264.400 254.419 257.500 254.309 L 250.600 254.200 250.491 247.300 L 250.381 240.400 243.591 240.400 L 236.800 240.400 236.800 247.200 " stroke="none" fill="#441c64" fill-rule="evenodd"></path><path id="path3" d="M236.309 147.900 L 236.200 155.000 195.200 155.198 L 154.200 155.396 195.400 155.598 L 236.600 155.800 236.702 197.700 L 236.804 239.600 243.600 239.600 L 250.396 239.600 250.498 197.700 L 250.600 155.800 280.262 155.800 C 296.576 155.800,309.840 155.665,309.738 155.500 C 309.636 155.335,296.333 155.200,280.176 155.200 L 250.800 155.200 250.800 148.000 L 250.800 140.800 243.609 140.800 L 236.418 140.800 236.309 147.900 M279.297 187.131 C 278.900 187.384,278.816 193.430,278.897 216.025 L 279.000 244.600 286.000 244.600 L 293.000 244.600 293.103 216.244 C 293.177 195.630,293.082 187.740,292.754 187.344 C 292.247 186.733,280.224 186.543,279.297 187.131 M296.491 331.300 L 296.600 338.600 303.600 338.600 L 310.600 338.600 310.709 331.300 L 310.818 324.000 303.600 324.000 L 296.382 324.000 296.491 331.300 " stroke="none" fill="#fcc37c" fill-rule="evenodd"></path><path id="path4" d="M118.899 155.479 L 153.998 155.604 154.099 218.902 L 154.200 282.200 161.200 282.400 L 168.200 282.600 168.309 289.491 L 168.419 296.381 175.309 296.491 L 182.200 296.600 182.310 303.516 C 182.389 308.542,182.553 310.477,182.910 310.594 C 183.179 310.683,205.495 310.812,232.500 310.881 L 281.600 311.006 281.600 304.103 L 281.600 297.200 288.800 297.200 L 296.000 297.200 296.000 290.000 L 296.000 282.800 303.001 282.800 L 310.002 282.800 309.901 219.300 L 309.800 155.800 280.200 155.800 L 250.600 155.800 250.498 197.700 L 250.396 239.600 243.598 239.600 L 236.800 239.600 236.800 197.824 C 236.800 174.847,236.665 155.969,236.500 155.872 C 236.335 155.776,201.910 155.620,160.000 155.526 C 118.090 155.431,99.594 155.411,118.899 155.479 M292.754 187.344 C 293.082 187.740,293.177 195.630,293.103 216.244 L 293.000 244.600 286.000 244.600 L 279.000 244.600 278.897 216.025 C 278.816 193.430,278.900 187.384,279.297 187.131 C 280.224 186.543,292.247 186.733,292.754 187.344 M250.891 246.900 L 251.000 253.800 258.000 254.000 L 265.000 254.200 265.111 274.600 C 265.172 285.820,265.123 295.407,265.002 295.904 L 264.783 296.807 243.492 296.704 L 222.200 296.600 222.200 275.400 L 222.200 254.200 229.100 254.091 L 236.000 253.981 236.000 247.257 C 236.000 243.559,236.120 240.413,236.267 240.267 C 236.413 240.120,239.739 240.000,243.657 240.000 L 250.781 240.000 250.891 246.900 M267.433 324.300 C 267.268 324.465,241.723 324.690,210.667 324.800 L 154.200 325.000 154.090 331.570 C 154.029 335.183,154.119 338.278,154.290 338.447 C 154.460 338.616,191.821 338.791,237.313 338.837 C 282.806 338.882,320.121 339.073,320.237 339.260 C 320.353 339.447,326.827 339.600,334.624 339.600 L 348.800 339.600 348.800 331.800 L 348.800 324.000 329.809 324.000 L 310.818 324.000 310.709 331.300 L 310.600 338.600 303.600 338.600 L 296.600 338.600 296.491 331.300 L 296.382 324.000 282.058 324.000 C 274.179 324.000,267.598 324.135,267.433 324.300 " stroke="none" fill="#dc3444" fill-rule="evenodd"></path></g></svg>