<svg width="16" height="16" viewBox="0 0 16 16" fill="none" xmlns="http://www.w3.org/2000/svg">
<path d="M1.59961 8.80002C1.59961 8.3582 1.95778 8.00002 2.39961 8.00002H3.99961C4.44144 8.00002 4.79961 8.3582 4.79961 8.80002V12.8C4.79961 13.2419 4.44144 13.6 3.99961 13.6H2.39961C1.95778 13.6 1.59961 13.2419 1.59961 12.8V8.80002Z" fill="#A3A9BA"/>
<path d="M6.39961 5.60002C6.39961 5.1582 6.75778 4.80002 7.19961 4.80002H8.79961C9.24144 4.80002 9.59961 5.1582 9.59961 5.60002V12.8C9.59961 13.2419 9.24144 13.6 8.79961 13.6H7.19961C6.75778 13.6 6.39961 13.2419 6.39961 12.8V5.60002Z" fill="#A3A9BA"/>
<path d="M11.1996 3.20002C11.1996 2.7582 11.5578 2.40002 11.9996 2.40002H13.5996C14.0414 2.40002 14.3996 2.7582 14.3996 3.20002V12.8C14.3996 13.2419 14.0414 13.6 13.5996 13.6H11.9996C11.5578 13.6 11.1996 13.2419 11.1996 12.8V3.20002Z" fill="#A3A9BA"/>
</svg>
