<svg width="20" height="22" viewBox="0 0 20 22" fill="none" xmlns="http://www.w3.org/2000/svg">
<path fill-rule="evenodd" clip-rule="evenodd" d="M10.795 0.111767C10.6626 0.0384499 10.5138 0 10.3627 0C10.2115 0 10.0627 0.0384499 9.93034 0.111767L1.43319 4.82137L10.3627 9.77096L19.2921 4.82137L10.795 0.111767ZM19.9167 6.53123L11.2584 11.3308V21.23L19.4534 16.6872C19.5937 16.6094 19.7108 16.4953 19.7923 16.3566C19.8738 16.218 19.9168 16.0599 19.9167 15.8988V6.53123ZM9.46697 21.23V11.3308L0.808594 6.53123V15.8988C0.808562 16.0599 0.85154 16.218 0.933044 16.3566C1.01455 16.4953 1.13159 16.6094 1.27197 16.6872L9.46697 21.23Z" fill="#A3A9BA"/>
</svg>
