<svg width="36" height="36" viewBox="0 0 36 36" fill="none" xmlns="http://www.w3.org/2000/svg">
<path d="M0.5 7C0.5 3.41015 3.41015 0.5 7 0.5H29C32.5899 0.5 35.5 3.41015 35.5 7V29C35.5 32.5899 32.5899 35.5 29 35.5H7C3.41015 35.5 0.5 32.5899 0.5 29V7Z" fill="url(#paint0_linear_881_5809)" stroke="url(#paint1_linear_881_5809)"/>
<path d="M27 12.375C27 15.067 22.97 17.25 18 17.25C13.03 17.25 9 15.067 9 12.375C9 9.683 13.03 7.5 18 7.5C22.97 7.5 27 9.683 27 12.375Z" fill="#A3A9BA"/>
<path d="M18 18.75C20.685 18.75 23.19 18.164 25.078 17.141C25.7728 16.7721 26.4116 16.3061 26.975 15.757C26.991 15.878 27 16.001 27 16.125C27 18.817 22.97 21 18 21C13.03 21 9 18.817 9 16.125C9 16.001 9.009 15.878 9.025 15.757C9.58842 16.3061 10.2272 16.7721 10.922 17.141C12.809 18.164 15.315 18.75 18 18.75Z" fill="#A3A9BA"/>
<path d="M18 22.5C20.685 22.5 23.19 21.914 25.078 20.891C25.7729 20.5221 26.4116 20.0561 26.975 19.507C26.991 19.628 27 19.751 27 19.875C27 22.567 22.97 24.75 18 24.75C13.03 24.75 9 22.567 9 19.875C9 19.751 9.009 19.628 9.025 19.507C9.58841 20.0561 10.2272 20.5221 10.922 20.891C12.809 21.914 15.315 22.5 18 22.5Z" fill="#A3A9BA"/>
<path d="M18 26.25C20.685 26.25 23.19 25.664 25.078 24.641C25.7729 24.2721 26.4116 23.8061 26.975 23.257C26.991 23.378 27 23.501 27 23.625C27 26.317 22.97 28.5 18 28.5C13.03 28.5 9 26.317 9 23.625C9 23.501 9.009 23.378 9.025 23.257C9.58841 23.8061 10.2272 24.2721 10.922 24.641C12.809 25.664 15.315 26.25 18 26.25Z" fill="#A3A9BA"/>
<defs>
<linearGradient id="paint0_linear_881_5809" x1="18" y1="0" x2="18" y2="36" gradientUnits="userSpaceOnUse">
<stop stop-color="white"/>
<stop offset="1" stop-color="#E5E5E5" stop-opacity="0.31"/>
</linearGradient>
<linearGradient id="paint1_linear_881_5809" x1="9.75" y1="3" x2="30" y2="31.5" gradientUnits="userSpaceOnUse">
<stop stop-color="#F1F5FF"/>
<stop offset="1" stop-color="#EEEEEE" stop-opacity="0.88"/>
</linearGradient>
</defs>
</svg>
