<svg width="25" height="24" viewBox="0 0 25 24" fill="none" xmlns="http://www.w3.org/2000/svg">
<path d="M21.7176 6.375C21.7176 9.067 17.7069 11.25 12.7607 11.25C7.81443 11.25 3.80371 9.067 3.80371 6.375C3.80371 3.683 7.81443 1.5 12.7607 1.5C17.7069 1.5 21.7176 3.683 21.7176 6.375Z" fill="#A3A9BA"/>
<path d="M12.7607 12.75C15.4328 12.75 17.9258 12.164 19.8048 11.141C20.4963 10.7721 21.132 10.3061 21.6927 9.75702C21.7086 9.87802 21.7176 10.001 21.7176 10.125C21.7176 12.817 17.7069 15 12.7607 15C7.81443 15 3.80371 12.817 3.80371 10.125C3.80371 10.001 3.81267 9.87802 3.82859 9.75702C4.38931 10.3061 5.025 10.7721 5.71652 11.141C7.59449 12.164 10.0885 12.75 12.7607 12.75Z" fill="#A3A9BA"/>
<path d="M12.7607 16.5C15.4328 16.5 17.9258 15.914 19.8048 14.891C20.4963 14.5221 21.132 14.0561 21.6927 13.507C21.7086 13.628 21.7176 13.751 21.7176 13.875C21.7176 16.567 17.7069 18.75 12.7607 18.75C7.81443 18.75 3.80371 16.567 3.80371 13.875C3.80371 13.751 3.81267 13.628 3.82859 13.507C4.3893 14.0561 5.025 14.5221 5.71652 14.891C7.59449 15.914 10.0885 16.5 12.7607 16.5Z" fill="#A3A9BA"/>
<path d="M12.7607 20.25C15.4328 20.25 17.9258 19.664 19.8048 18.641C20.4963 18.2721 21.132 17.8061 21.6927 17.257C21.7086 17.378 21.7176 17.501 21.7176 17.625C21.7176 20.317 17.7069 22.5 12.7607 22.5C7.81443 22.5 3.80371 20.317 3.80371 17.625C3.80371 17.501 3.81267 17.378 3.82859 17.257C4.3893 17.8061 5.025 18.2721 5.71652 18.641C7.59449 19.664 10.0885 20.25 12.7607 20.25Z" fill="#A3A9BA"/>
</svg>
