<svg width="324" height="332" viewBox="0 0 324 332" fill="none" xmlns="http://www.w3.org/2000/svg">
<path d="M140.463 85.9353C150.062 69.1475 174.27 69.1475 183.869 85.9352L247.982 198.065C257.512 214.732 245.478 235.474 226.279 235.474H98.0524C78.8539 235.474 66.8201 214.732 76.3496 198.065L140.463 85.9353Z" fill="white"/>
<path d="M224.103 109.745C246.627 112.374 257.876 138.482 244.541 157.183L179.751 248.046C166.179 267.08 137.419 264.175 128.227 242.841L83.576 139.205C74.3842 117.871 91.7357 94.2981 114.662 96.9735L224.103 109.745Z" fill="#C7C7C7"/>
<path d="M227.377 155.856C247.158 156.629 257.236 180.019 244.416 195.404L206.149 241.326C194.703 255.062 173.088 252.032 166.053 235.705L145.274 187.477C138.24 171.15 150.669 152.861 168.331 153.551L227.377 155.856Z" fill="#1A1A1A"/>
</svg>
