<svg width="573" height="153" viewBox="0 0 573 153" fill="none" xmlns="http://www.w3.org/2000/svg">
<path d="M35.456 31.496C41.12 31.496 46.064 32.648 50.288 34.952C54.608 37.256 57.92 40.28 60.224 44.024V32.648H84.848V112.856C84.848 120.248 83.36 126.92 80.384 132.872C77.504 138.92 73.04 143.72 66.992 147.272C61.04 150.824 53.6 152.6 44.672 152.6C32.768 152.6 23.12 149.768 15.728 144.104C8.336 138.536 4.112 130.952 3.056 121.352H27.392C28.16 124.424 29.984 126.824 32.864 128.552C35.744 130.376 39.296 131.288 43.52 131.288C48.608 131.288 52.64 129.8 55.616 126.824C58.688 123.944 60.224 119.288 60.224 112.856V101.48C57.824 105.224 54.512 108.296 50.288 110.696C46.064 113 41.12 114.152 35.456 114.152C28.832 114.152 22.832 112.472 17.456 109.112C12.08 105.656 7.808 100.808 4.64 94.568C1.568 88.232 0.0320001 80.936 0.0320001 72.68C0.0320001 64.424 1.568 57.176 4.64 50.936C7.808 44.696 12.08 39.896 17.456 36.536C22.832 33.176 28.832 31.496 35.456 31.496ZM60.224 72.824C60.224 66.68 58.496 61.832 55.04 58.28C51.68 54.728 47.552 52.952 42.656 52.952C37.76 52.952 33.584 54.728 30.128 58.28C26.768 61.736 25.088 66.536 25.088 72.68C25.088 78.824 26.768 83.72 30.128 87.368C33.584 90.92 37.76 92.696 42.656 92.696C47.552 92.696 51.68 90.92 55.04 87.368C58.496 83.816 60.224 78.968 60.224 72.824ZM142.982 53.096H129.734V113H105.11V53.096H96.1824V32.648H105.11V30.344C105.11 20.456 107.942 12.968 113.606 7.88C119.27 2.696 127.574 0.103994 138.518 0.103994C140.342 0.103994 141.686 0.151994 142.55 0.247993V21.128C137.846 20.84 134.534 21.512 132.614 23.144C130.694 24.776 129.734 27.704 129.734 31.928V32.648H142.982V53.096ZM202.073 113L186.665 90.68L173.705 113H147.065L173.561 71.96L146.345 32.648H173.993L189.401 54.824L202.361 32.648H229.001L202.073 73.112L229.721 113H202.073Z" fill="url(#paint0_linear_413_1798)"/>
<path d="M294.349 6.44V113H269.725V6.44H294.349ZM307.298 72.68C307.298 64.424 308.834 57.176 311.906 50.936C315.074 44.696 319.346 39.896 324.722 36.536C330.098 33.176 336.098 31.496 342.722 31.496C348.386 31.496 353.33 32.648 357.554 34.952C361.874 37.256 365.186 40.28 367.49 44.024V32.648H392.114V113H367.49V101.624C365.09 105.368 361.73 108.392 357.41 110.696C353.186 113 348.242 114.152 342.578 114.152C336.05 114.152 330.098 112.472 324.722 109.112C319.346 105.656 315.074 100.808 311.906 94.568C308.834 88.232 307.298 80.936 307.298 72.68ZM367.49 72.824C367.49 66.68 365.762 61.832 362.306 58.28C358.946 54.728 354.818 52.952 349.922 52.952C345.026 52.952 340.85 54.728 337.394 58.28C334.034 61.736 332.354 66.536 332.354 72.68C332.354 78.824 334.034 83.72 337.394 87.368C340.85 90.92 345.026 92.696 349.922 92.696C354.818 92.696 358.946 90.92 362.306 87.368C365.762 83.816 367.49 78.968 367.49 72.824ZM434.552 44.024C436.856 40.28 440.168 37.256 444.488 34.952C448.808 32.648 453.752 31.496 459.32 31.496C465.944 31.496 471.944 33.176 477.32 36.536C482.696 39.896 486.92 44.696 489.992 50.936C493.16 57.176 494.744 64.424 494.744 72.68C494.744 80.936 493.16 88.232 489.992 94.568C486.92 100.808 482.696 105.656 477.32 109.112C471.944 112.472 465.944 114.152 459.32 114.152C453.656 114.152 448.712 113.048 444.488 110.84C440.264 108.536 436.952 105.512 434.552 101.768V113H409.928V6.44H434.552V44.024ZM469.688 72.68C469.688 66.536 467.96 61.736 464.504 58.28C461.144 54.728 456.968 52.952 451.976 52.952C447.08 52.952 442.904 54.728 439.448 58.28C436.088 61.832 434.408 66.68 434.408 72.824C434.408 78.968 436.088 83.816 439.448 87.368C442.904 90.92 447.08 92.696 451.976 92.696C456.872 92.696 461.048 90.92 464.504 87.368C467.96 83.72 469.688 78.824 469.688 72.68ZM540.35 114.152C533.342 114.152 527.102 112.952 521.63 110.552C516.158 108.152 511.838 104.888 508.67 100.76C505.502 96.536 503.726 91.832 503.342 86.648H527.678C527.966 89.432 529.262 91.688 531.566 93.416C533.87 95.144 536.702 96.008 540.062 96.008C543.134 96.008 545.486 95.432 547.118 94.28C548.846 93.032 549.71 91.448 549.71 89.528C549.71 87.224 548.51 85.544 546.11 84.488C543.71 83.336 539.822 82.088 534.446 80.744C528.686 79.4 523.886 78.008 520.046 76.568C516.206 75.032 512.894 72.68 510.11 69.512C507.326 66.248 505.934 61.88 505.934 56.408C505.934 51.8 507.182 47.624 509.678 43.88C512.27 40.04 516.014 37.016 520.91 34.808C525.902 32.6 531.806 31.496 538.622 31.496C548.702 31.496 556.622 33.992 562.382 38.984C568.238 43.976 571.598 50.6 572.462 58.856H549.71C549.326 56.072 548.078 53.864 545.966 52.232C543.95 50.6 541.262 49.784 537.902 49.784C535.022 49.784 532.814 50.36 531.278 51.512C529.742 52.568 528.974 54.056 528.974 55.976C528.974 58.28 530.174 60.008 532.574 61.16C535.07 62.312 538.91 63.464 544.094 64.616C550.046 66.152 554.894 67.688 558.638 69.224C562.382 70.664 565.646 73.064 568.43 76.424C571.31 79.688 572.798 84.104 572.894 89.672C572.894 94.376 571.55 98.6 568.862 102.344C566.27 105.992 562.478 108.872 557.486 110.984C552.59 113.096 546.878 114.152 540.35 114.152Z" fill="white"/>
<defs>
<linearGradient id="paint0_linear_413_1798" x1="381.5" y1="-45" x2="381.5" y2="171" gradientUnits="userSpaceOnUse">
<stop stop-color="white"/>
<stop offset="1" stop-color="white" stop-opacity="0"/>
</linearGradient>
</defs>
</svg>
