<svg width="1173" height="1165" viewBox="0 0 1173 1165" fill="none" xmlns="http://www.w3.org/2000/svg">
<path fill-rule="evenodd" clip-rule="evenodd" d="M348.581 70.9428C483.243 -11.622 674.372 -20.0684 817.581 34.943C960.123 89.698 1043.84 207.856 1101.58 307.942C1161.58 411.944 1172.08 562.513 1172.08 662.944C1172.08 781.944 1161.08 913.943 1076.58 1027.94C983.582 1166.94 761.582 1194.94 589.582 1134.94C386.082 1077.44 326.582 995.944 153.582 946.444C-75.9177 921.944 -164.474 1270.34 -441.918 1069.94C-834.419 786.443 -820.11 731.969 -823.918 717.943C-833.419 682.943 -862.918 576.441 -656.917 437.443C-529.052 351.166 -418.418 292.67 -207.918 347.17C118.328 431.638 -77.9189 332.442 348.581 70.9428Z" fill="url(#paint0_linear_1091_1308)"/>
<path fill-rule="evenodd" clip-rule="evenodd" d="M348.581 70.9428C483.243 -11.622 674.372 -20.0684 817.581 34.943C960.123 89.698 1043.84 207.856 1101.58 307.942C1161.58 411.944 1172.08 562.513 1172.08 662.944C1172.08 781.944 1161.08 913.943 1076.58 1027.94C983.582 1166.94 761.582 1194.94 589.582 1134.94C386.082 1077.44 326.582 995.944 153.582 946.444C-75.9177 921.944 -164.474 1270.34 -441.918 1069.94C-834.419 786.443 -820.11 731.969 -823.918 717.943C-833.419 682.943 -862.918 576.441 -656.917 437.443C-529.052 351.166 -418.418 292.67 -207.918 347.17C118.328 431.638 -77.9189 332.442 348.581 70.9428Z" fill="url(#paint1_linear_1091_1308)" fill-opacity="0.2"/>
<defs>
<linearGradient id="paint0_linear_1091_1308" x1="1172.08" y1="723.444" x2="169.085" y2="644.445" gradientUnits="userSpaceOnUse">
<stop stop-color="#85A2FF"/>
<stop offset="1" stop-color="white" stop-opacity="0.17"/>
</linearGradient>
<linearGradient id="paint1_linear_1091_1308" x1="-774.417" y1="593.944" x2="160.083" y2="655.445" gradientUnits="userSpaceOnUse">
<stop stop-color="white"/>
<stop offset="1" stop-color="white" stop-opacity="0"/>
</linearGradient>
</defs>
</svg>
