<svg width="37" height="36" viewBox="0 0 37 36" fill="none" xmlns="http://www.w3.org/2000/svg">
<path d="M1.35156 7C1.35156 3.41015 4.26171 0.5 7.85156 0.5H29.6793C33.2692 0.5 36.1793 3.41015 36.1793 7V29C36.1793 32.5899 33.2692 35.5 29.6793 35.5H7.85156C4.26171 35.5 1.35156 32.5899 1.35156 29V7Z" fill="url(#paint0_linear_1231_4230)" stroke="url(#paint1_linear_1231_4230)"/>
<path d="M28.0957 11.7766C26.8746 10.0253 25.1817 8.66055 23.2158 7.84242C24.3176 9.79081 25.0999 11.9049 25.5324 14.1035C26.4949 13.4572 27.3584 12.6733 28.0957 11.7766ZM23.5975 15.1549C23.1258 12.2323 21.9741 9.463 20.236 7.07239C19.3908 6.97587 18.5375 6.97587 17.6923 7.07239C15.9542 9.463 14.8025 12.2323 14.3308 15.1549C15.796 15.7808 17.3721 16.1022 18.9641 16.1C20.608 16.1 22.1738 15.764 23.5975 15.1549ZM14.1079 17.3264C15.6619 17.9063 17.3065 18.2021 18.9641 18.2001C20.672 18.2001 22.3075 17.892 23.8204 17.3264C23.9027 19.095 23.7381 20.8665 23.3314 22.5892C21.9004 22.9301 20.4347 23.1016 18.9641 23.1003C17.461 23.1003 15.9997 22.9225 14.5983 22.5878C14.1912 20.8656 14.0261 19.0946 14.1079 17.3264ZM12.3958 14.1035C12.8285 11.9054 13.6108 9.79179 14.7125 7.84382C12.7466 8.66195 11.0537 10.0267 9.83258 11.778C10.5695 12.6712 11.4332 13.4567 12.3958 14.1021V14.1035ZM29.1809 13.7171C29.9683 15.5276 30.2635 17.5157 30.0362 19.4783C28.6748 20.4772 27.1857 21.2872 25.6091 21.8864C25.9295 20.0667 26.011 18.2126 25.8515 16.3716C27.0893 15.6623 28.2121 14.7671 29.1809 13.7171ZM8.74738 13.7171C9.7162 14.7672 10.839 15.6623 12.0768 16.3716C11.9188 18.2131 12.0003 20.0675 12.3192 21.8878C10.7426 21.2886 9.25346 20.4786 7.89204 19.4797C7.66521 17.5169 7.96086 15.5288 8.74877 13.7185L8.74738 13.7171ZM18.9641 25.2003C20.2151 25.2003 21.441 25.0897 22.6321 24.8783C22.0358 26.4629 21.2299 27.9595 20.236 29.3277C19.3908 29.4241 18.5375 29.4241 17.6923 29.3277C16.6984 27.9595 15.8924 26.4629 15.2962 24.8783C16.4873 25.0897 17.7132 25.2003 18.9641 25.2003ZM25.0337 24.3001C24.5867 25.7822 23.977 27.2097 23.2158 28.5563C24.5728 27.9915 25.8058 27.1636 26.8443 26.1198C27.8829 25.076 28.7067 23.8368 29.2687 22.473C27.9411 23.2319 26.5229 23.8465 25.0337 24.3001ZM14.7125 28.5563C13.3555 27.9915 12.1225 27.1636 11.0839 26.1198C10.0454 25.076 9.22158 23.8368 8.65962 22.473C9.98721 23.2319 11.4054 23.8465 12.8945 24.3001C13.3416 25.7822 13.9513 27.2097 14.7125 28.5563Z" fill="#A3A9BA"/>
<defs>
<linearGradient id="paint0_linear_1231_4230" x1="18.7654" y1="0" x2="18.7654" y2="36" gradientUnits="userSpaceOnUse">
<stop stop-color="white"/>
<stop offset="1" stop-color="#E5E5E5" stop-opacity="0.31"/>
</linearGradient>
<linearGradient id="paint1_linear_1231_4230" x1="10.5549" y1="3" x2="30.8367" y2="31.4081" gradientUnits="userSpaceOnUse">
<stop stop-color="#F1F5FF"/>
<stop offset="1" stop-color="#EEEEEE" stop-opacity="0.88"/>
</linearGradient>
</defs>
</svg>
