<svg width="24" height="23" viewBox="0 0 24 23" fill="none" xmlns="http://www.w3.org/2000/svg">
<path d="M21.0957 4.77658C19.8746 3.02534 18.1817 1.66055 16.2158 0.842419C17.3176 2.79081 18.0999 4.90494 18.5324 7.10348C19.4949 6.45719 20.3584 5.67331 21.0957 4.77658ZM16.5975 8.15493C16.1258 5.23234 14.9741 2.463 13.236 0.0723871C12.3908 -0.024129 11.5375 -0.024129 10.6923 0.0723871C8.95422 2.463 7.80247 5.23234 7.33079 8.15493C8.79602 8.78076 10.3721 9.10222 11.9641 9.09997C13.608 9.09997 15.1738 8.76395 16.5975 8.15493ZM7.1079 10.3264C8.66188 10.9063 10.3065 11.2021 11.9641 11.2001C13.672 11.2001 15.3075 10.892 16.8204 10.3264C16.9027 12.095 16.7381 13.8665 16.3314 15.5892C14.9004 15.9301 13.4347 16.1016 11.9641 16.1003C10.461 16.1003 8.99969 15.9225 7.59826 15.5878C7.19115 13.8656 7.0261 12.0946 7.1079 10.3264ZM5.39582 7.10348C5.82854 4.90543 6.61079 2.79179 7.71249 0.843819C5.74659 1.66195 4.05371 3.02674 2.83258 4.77798C3.56951 5.67122 4.43321 6.45666 5.39582 7.10208V7.10348ZM22.1809 6.71707C22.9683 8.52755 23.2635 10.5157 23.0362 12.4783C21.6748 13.4772 20.1857 14.2872 18.6091 14.8864C18.9295 13.0667 19.011 11.2126 18.8515 9.37158C20.0893 8.6623 21.2121 7.76714 22.1809 6.71707ZM1.74738 6.71707C2.7162 7.76715 3.83896 8.66232 5.07681 9.37158C4.91884 11.2131 5.00033 13.0675 5.31921 14.8878C3.74258 14.2886 2.25346 13.4786 0.892037 12.4797C0.665214 10.5169 0.96086 8.52882 1.74877 6.71847L1.74738 6.71707ZM11.9641 18.2003C13.2151 18.2003 14.441 18.0897 15.6321 17.8783C15.0358 19.4629 14.2299 20.9595 13.236 22.3277C12.3908 22.4241 11.5375 22.4241 10.6923 22.3277C9.69835 20.9595 8.89241 19.4629 8.29619 17.8783C9.48726 18.0897 10.7132 18.2003 11.9641 18.2003ZM18.0337 17.3001C17.5867 18.7822 16.977 20.2097 16.2158 21.5563C17.5728 20.9915 18.8058 20.1636 19.8443 19.1198C20.8829 18.076 21.7067 16.8368 22.2687 15.473C20.9411 16.2319 19.5229 16.8465 18.0337 17.3001ZM7.71249 21.5563C6.3555 20.9915 5.1225 20.1636 4.08394 19.1198C3.04537 18.076 2.22158 16.8368 1.65962 15.473C2.98721 16.2319 4.40535 16.8465 5.89454 17.3001C6.34158 18.7822 6.95131 20.2097 7.71249 21.5563Z" fill="#A3A9BA"/>
</svg>
