<svg width="36" height="36" viewBox="0 0 36 36" fill="none" xmlns="http://www.w3.org/2000/svg">
<path d="M0.5 7C0.5 3.41015 3.41015 0.5 7 0.5H29C32.5899 0.5 35.5 3.41015 35.5 7V29C35.5 32.5899 32.5899 35.5 29 35.5H7C3.41015 35.5 0.5 32.5899 0.5 29V7Z" fill="url(#paint0_linear_1231_1926)" stroke="#2D2D2D"/>
<path d="M27.1766 11.5768C25.9494 9.82563 24.2481 8.46089 22.2724 7.6428C23.3797 9.59111 24.1659 11.7051 24.6006 13.9036C25.5678 13.2573 26.4356 12.4735 27.1766 11.5768ZM22.656 14.955C22.182 12.0325 21.0245 9.26332 19.2778 6.8728C18.4284 6.77629 17.5708 6.77629 16.7214 6.8728C14.9747 9.26332 13.8172 12.0325 13.3432 14.955C14.8157 15.5808 16.3996 15.9023 17.9996 15.9C19.6516 15.9 21.2252 15.564 22.656 14.955ZM13.1192 17.1264C14.6809 17.7062 16.3337 18.0021 17.9996 18C19.716 18 21.3596 17.692 22.88 17.1264C22.9628 18.8949 22.7973 20.6664 22.3886 22.389C20.9505 22.7298 19.4775 22.9013 17.9996 22.9C16.489 22.9 15.0204 22.7222 13.612 22.3876C13.2029 20.6655 13.037 18.8945 13.1192 17.1264ZM11.3986 13.9036C11.8335 11.7056 12.6196 9.59209 13.7268 7.6442C11.7511 8.46229 10.0498 9.82703 8.82259 11.5782C9.56319 12.4714 10.4312 13.2568 11.3986 13.9022V13.9036ZM28.2672 13.5172C29.0585 15.3276 29.3552 17.3156 29.1268 19.2782C27.7586 20.2771 26.2621 21.087 24.6776 21.6862C24.9996 19.8666 25.0815 18.0125 24.9212 16.1716C26.1652 15.4624 27.2935 14.5672 28.2672 13.5172ZM7.73199 13.5172C8.70563 14.5672 9.83398 15.4624 11.078 16.1716C10.9192 18.013 11.0011 19.8673 11.3216 21.6876C9.73711 21.0884 8.24059 20.2784 6.87239 19.2796C6.64443 17.3169 6.94155 15.3289 7.73339 13.5186L7.73199 13.5172ZM17.9996 25C19.2568 25 20.4888 24.8894 21.6858 24.678C21.0866 26.2625 20.2766 27.759 19.2778 29.1272C18.4284 29.2236 17.5708 29.2236 16.7214 29.1272C15.7225 27.759 14.9126 26.2625 14.3134 24.678C15.5104 24.8894 16.7424 25 17.9996 25ZM24.0994 24.0998C23.6501 25.5818 23.0374 27.0093 22.2724 28.3558C23.6361 27.791 24.8753 26.9631 25.919 25.9194C26.9627 24.8757 27.7906 23.6365 28.3554 22.2728C27.0212 23.0316 25.596 23.6462 24.0994 24.0998ZM13.7268 28.3558C12.363 27.791 11.1239 26.9631 10.0802 25.9194C9.03644 24.8757 8.20855 23.6365 7.64379 22.2728C8.97799 23.0316 10.4032 23.6462 11.8998 24.0998C12.349 25.5818 12.9618 27.0093 13.7268 28.3558Z" fill="#A3A9BA"/>
<defs>
<linearGradient id="paint0_linear_1231_1926" x1="18" y1="0" x2="18" y2="36" gradientUnits="userSpaceOnUse">
<stop stop-color="#3D3B3B"/>
<stop offset="1"/>
</linearGradient>
</defs>
</svg>
