<svg width="103" height="96" viewBox="0 0 103 96" fill="none" xmlns="http://www.w3.org/2000/svg">
<path d="M89.92 72.3798C89.6601 72.3798 89.4115 72.401 89.1516 72.4116L83.1739 49.982C90.4059 47.3956 95.57 40.8448 95.57 33.1598C95.57 23.2276 86.9481 15.1398 76.36 15.1398C65.7719 15.1398 57.15 23.2276 57.15 33.1598C57.15 36.1278 57.9297 38.9262 59.297 41.396L48.901 47.9786C44.3697 42.6998 37.6462 39.1488 30.03 38.5552V27.6796C37.0586 26.6514 42.46 20.9592 42.46 14.0798C42.46 6.4796 35.8721 0.299805 27.77 0.299805C19.6679 0.299805 13.08 6.4796 13.08 14.0798C13.08 20.9592 18.4814 26.6514 25.51 27.6796V38.5552C11.611 39.6364 0.650024 50.5862 0.650024 63.8998C0.650024 77.9236 12.8201 89.3398 27.77 89.3398C42.7199 89.3398 54.89 77.9236 54.89 63.8998C54.89 59.3948 53.6244 55.1654 51.4322 51.4872L61.8282 44.9152C65.3538 48.7418 70.5518 51.1798 76.36 51.1798C77.1849 51.1798 77.9872 51.1162 78.7895 51.0208L84.7672 73.4398C80.4845 75.2842 77.49 79.3334 77.49 84.0398C77.49 90.474 83.0609 95.6998 89.92 95.6998C96.7791 95.6998 102.35 90.474 102.35 84.0398C102.35 77.6056 96.7791 72.3798 89.92 72.3798ZM17.6 14.0798C17.6 8.8222 22.1652 4.5398 27.77 4.5398C33.3748 4.5398 37.94 8.8222 37.94 14.0798C37.94 19.3374 33.3748 23.6198 27.77 23.6198C22.1652 23.6198 17.6 19.3374 17.6 14.0798ZM27.77 85.0998C15.3061 85.0998 5.17002 75.5916 5.17002 63.8998C5.17002 52.208 15.3061 42.6998 27.77 42.6998C40.2339 42.6998 50.37 52.208 50.37 63.8998C50.37 75.5916 40.2339 85.0998 27.77 85.0998ZM76.36 46.9398C68.2579 46.9398 61.67 40.76 61.67 33.1598C61.67 25.5596 68.2579 19.3798 76.36 19.3798C84.4621 19.3798 91.05 25.5596 91.05 33.1598C91.05 40.76 84.4621 46.9398 76.36 46.9398ZM89.92 91.4598C85.5582 91.4598 82.01 88.1314 82.01 84.0398C82.01 79.9482 85.5582 76.6198 89.92 76.6198C94.2818 76.6198 97.83 79.9482 97.83 84.0398C97.83 88.1314 94.2818 91.4598 89.92 91.4598Z" fill="#A3A9BA"/>
</svg>
