<svg width="16" height="20" viewBox="0 0 16 20" fill="none" xmlns="http://www.w3.org/2000/svg">
<path d="M11.75 8.75V5.625C11.75 4.63044 11.3549 3.67661 10.6516 2.97335C9.94839 2.27009 8.99456 1.875 8 1.875C7.00544 1.875 6.05161 2.27009 5.34835 2.97335C4.64509 3.67661 4.25 4.63044 4.25 5.625V8.75M3.625 18.125H12.375C12.8723 18.125 13.3492 17.9275 13.7008 17.5758C14.0525 17.2242 14.25 16.7473 14.25 16.25V10.625C14.25 10.1277 14.0525 9.65081 13.7008 9.29917C13.3492 8.94754 12.8723 8.75 12.375 8.75H3.625C3.12772 8.75 2.65081 8.94754 2.29917 9.29917C1.94754 9.65081 1.75 10.1277 1.75 10.625V16.25C1.75 16.7473 1.94754 17.2242 2.29917 17.5758C2.65081 17.9275 3.12772 18.125 3.625 18.125Z" stroke="#A3A9BA" stroke-width="2" stroke-linecap="round" stroke-linejoin="round"/>
</svg>
