<svg width="40" height="40" viewBox="0 0 40 40" fill="none" xmlns="http://www.w3.org/2000/svg">
  <path
    d="M20 40C31.0457 40 40 31.0457 40 20C40 8.9543 31.0457 0 20 0C8.9543 0 0 8.9543 0 20C0 31.0457 8.9543 40 20 40Z"
    fill="#8247E5" />
  <path
    d="M26.6199 15.7209C26.1402 15.4419 25.5166 15.4419 24.9889 15.7209L21.2472 17.8605L18.7048 19.2558L14.9631 21.3954C14.4834 21.6744 13.8598 21.6744 13.3321 21.3954L10.3579 19.7209C9.87824 19.4419 9.54246 18.9302 9.54246 18.3721V15.0698C9.54246 14.5116 9.83027 14 10.3579 13.7209L13.2841 12.093C13.7638 11.8139 14.3875 11.8139 14.9152 12.093L17.8413 13.7209C18.3211 14 18.6568 14.5116 18.6568 15.0698V17.2093L21.1993 15.7674V13.6279C21.1993 13.0698 20.9114 12.5581 20.3838 12.2791L14.9631 9.2093C14.4834 8.93023 13.8598 8.93023 13.3321 9.2093L7.81551 12.2791C7.28781 12.5581 7 13.0698 7 13.6279V19.8139C7 20.3721 7.28781 20.8837 7.81551 21.1628L13.3321 24.2325C13.8118 24.5116 14.4354 24.5116 14.9631 24.2325L18.7048 22.1395L21.2472 20.6977L24.9889 18.6046C25.4686 18.3256 26.0923 18.3256 26.6199 18.6046L29.5461 20.2325C30.0258 20.5116 30.3616 21.0232 30.3616 21.5814V24.8837C30.3616 25.4419 30.0738 25.9535 29.5461 26.2325L26.6199 27.907C26.1402 28.1861 25.5166 28.1861 24.9889 27.907L22.0627 26.2791C21.583 26 21.2472 25.4884 21.2472 24.9302V22.7907L18.7048 24.2325V26.3721C18.7048 26.9302 18.9926 27.4419 19.5203 27.7209L25.0369 30.7907C25.5166 31.0698 26.1402 31.0698 26.6679 30.7907L32.1845 27.7209C32.6642 27.4419 33 26.9302 33 26.3721V20.1861C33 19.6279 32.7122 19.1163 32.1845 18.8372L26.6199 15.7209Z"
    fill="white" />
</svg>