<svg width="30" height="30" viewBox="0 0 30 30" fill="none" xmlns="http://www.w3.org/2000/svg">
<g clip-path="url(#clip0_1052_183)">
<path d="M8.5 7C7.38376 7 6.27846 7.21986 5.24719 7.64702C4.21592 8.07419 3.27889 8.70029 2.48959 9.48959C1.70029 10.2789 1.07419 11.2159 0.647024 12.2472C0.219859 13.2785 0 14.3838 0 15.5C0 16.6162 0.219859 17.7215 0.647024 18.7528C1.07419 19.7841 1.70029 20.7211 2.48959 21.5104C3.27889 22.2997 4.21592 22.9258 5.24719 23.353C6.27846 23.7801 7.38376 24 8.5 24C9.61624 24 10.7215 23.7801 11.7528 23.353C12.7841 22.9258 13.7211 22.2997 14.5104 21.5104C15.2997 20.7211 15.9258 19.7841 16.353 18.7528C16.7801 17.7215 17 16.6162 17 15.5C17 14.3838 16.7801 13.2785 16.353 12.2472C15.9258 11.2159 15.2997 10.2789 14.5104 9.48959C13.7211 8.70029 12.7841 8.07419 11.7528 7.64702C10.7215 7.21986 9.61624 7 8.5 7V7ZM22 8C21.4747 8 20.9546 8.19399 20.4693 8.5709C19.984 8.94781 19.543 9.50026 19.1716 10.1967C18.8001 10.8931 18.5055 11.7199 18.3045 12.6299C18.1035 13.5398 18 14.5151 18 15.5C18 16.4849 18.1035 17.4602 18.3045 18.3701C18.5055 19.2801 18.8001 20.1069 19.1716 20.8033C19.543 21.4997 19.984 22.0522 20.4693 22.4291C20.9546 22.806 21.4747 23 22 23C22.5253 23 23.0454 22.806 23.5307 22.4291C24.016 22.0522 24.457 21.4997 24.8284 20.8033C25.1999 20.1069 25.4945 19.2801 25.6955 18.3701C25.8965 17.4602 26 16.4849 26 15.5C26 14.5151 25.8965 13.5398 25.6955 12.6299C25.4945 11.7199 25.1999 10.8931 24.8284 10.1967C24.457 9.50026 24.016 8.94781 23.5307 8.5709C23.0454 8.19399 22.5253 8 22 8V8ZM28.5 9C28.1022 9 27.7206 9.68482 27.4393 10.9038C27.158 12.1228 27 13.7761 27 15.5C27 17.2239 27.158 18.8772 27.4393 20.0962C27.7206 21.3152 28.1022 22 28.5 22C28.8978 22 29.2794 21.3152 29.5607 20.0962C29.842 18.8772 30 17.2239 30 15.5C30 13.7761 29.842 12.1228 29.5607 10.9038C29.2794 9.68482 28.8978 9 28.5 9V9Z" fill="black"/>
</g>
<defs>
<clipPath id="clip0_1052_183">
<rect width="30" height="30" fill="white"/>
</clipPath>
</defs>
</svg>
