<svg width="24" height="26" viewBox="0 0 24 26" fill="none" xmlns="http://www.w3.org/2000/svg">
<path d="M12.9782 5.44991C14.8625 6.2364 16.9194 4.77434 15.9882 2.95719C15.8294 2.6473 15.652 2.35397 15.4572 2.08062C14.5075 0.74842 13.2195 1.42239e-07 11.8764 0C10.5334 -1.42239e-07 9.24537 0.748419 8.29569 2.08061C8.10083 2.35397 7.92349 2.6473 7.76468 2.95719C6.83345 4.77434 8.89035 6.2364 10.7747 5.44991V5.44991C11.4797 5.15564 12.2732 5.15564 12.9782 5.44991V5.44991Z" fill="url(#paint0_linear_140_130)"/>
<path d="M5.48561 11.3563C6.30618 9.16878 4.55533 6.86101 2.60235 8.14332C2.42974 8.25666 2.26321 8.3768 2.10344 8.50353C0.756629 9.5718 1.43799e-07 11.0207 0 12.5314C-1.43799e-07 14.0422 0.756629 15.4911 2.10344 16.5594C2.26321 16.6861 2.42974 16.8062 2.60235 16.9196C4.55533 18.2019 6.30618 15.8941 5.48561 13.7066V13.7066C5.2014 12.949 5.2014 12.1139 5.48561 11.3563V11.3563Z" fill="url(#paint1_linear_140_130)"/>
<path d="M10.7976 19.5674C8.89749 18.7178 6.77786 20.1677 7.61385 22.0738C7.80653 22.5132 8.02955 22.9254 8.28085 23.3031C9.25931 24.7735 10.5864 25.5996 11.9701 25.5996C13.3538 25.5996 14.6809 24.7735 15.6594 23.3031C15.9107 22.9254 16.1337 22.5132 16.3264 22.0738C17.1624 20.1677 15.0427 18.7178 13.1426 19.5674V19.5674C12.3965 19.901 11.5437 19.901 10.7976 19.5674V19.5674Z" fill="url(#paint2_linear_140_130)"/>
<path d="M18.5144 13.7741C17.6938 15.9616 19.4447 18.2694 21.3977 16.987C21.5703 16.8737 21.7368 16.7536 21.8966 16.6268C23.2434 15.5586 24 14.1097 24 12.5989C24 11.0882 23.2434 9.63928 21.8966 8.57101C21.7368 8.44428 21.5703 8.32413 21.3977 8.2108C19.4447 6.92849 17.6938 9.23626 18.5144 11.4237V11.4237C18.7986 12.1814 18.7986 13.0164 18.5144 13.7741V13.7741Z" fill="url(#paint3_linear_140_130)"/>
<defs>
<linearGradient id="paint0_linear_140_130" x1="11.8764" y1="0" x2="11.8764" y2="7.10366" gradientUnits="userSpaceOnUse">
<stop stop-color="#204DD9"/>
<stop offset="1" stop-color="#756AFE"/>
</linearGradient>
<linearGradient id="paint1_linear_140_130" x1="0" y1="12.5314" x2="7.18159" y2="12.5314" gradientUnits="userSpaceOnUse">
<stop stop-color="#204DD9"/>
<stop offset="1" stop-color="#756AFE"/>
</linearGradient>
<linearGradient id="paint2_linear_140_130" x1="11.9701" y1="25.5996" x2="11.9701" y2="17.7588" gradientUnits="userSpaceOnUse">
<stop stop-color="#204DD9"/>
<stop offset="1" stop-color="#756AFE"/>
</linearGradient>
<linearGradient id="paint3_linear_140_130" x1="24" y1="12.5989" x2="16.8184" y2="12.5989" gradientUnits="userSpaceOnUse">
<stop stop-color="#204DD9"/>
<stop offset="1" stop-color="#756AFE"/>
</linearGradient>
</defs>
</svg>
