<svg width="20" height="20" viewBox="0 0 20 20" fill="none" xmlns="http://www.w3.org/2000/svg">
<path d="M3.75 5.3125C3.75 4.40082 4.11216 3.52648 4.75682 2.88182C5.40148 2.23716 6.27582 1.875 7.1875 1.875C8.09918 1.875 8.97352 2.23716 9.61818 2.88182C10.2628 3.52648 10.625 4.40082 10.625 5.3125C10.625 6.22418 10.2628 7.09852 9.61818 7.74318C8.97352 8.38784 8.09918 8.75 7.1875 8.75C6.27582 8.75 5.40148 8.38784 4.75682 7.74318C4.11216 7.09852 3.75 6.22418 3.75 5.3125ZM11.875 7.1875C11.875 6.81816 11.9477 6.45243 12.0891 6.1112C12.2304 5.76997 12.4376 5.45993 12.6988 5.19876C12.9599 4.9376 13.27 4.73043 13.6112 4.58909C13.9524 4.44775 14.3182 4.375 14.6875 4.375C15.0568 4.375 15.4226 4.44775 15.7638 4.58909C16.105 4.73043 16.4151 4.9376 16.6762 5.19876C16.9374 5.45993 17.1446 5.76997 17.2859 6.1112C17.4273 6.45243 17.5 6.81816 17.5 7.1875C17.5 7.93342 17.2037 8.64879 16.6762 9.17624C16.1488 9.70368 15.4334 10 14.6875 10C13.9416 10 13.2262 9.70368 12.6988 9.17624C12.1713 8.64879 11.875 7.93342 11.875 7.1875ZM1.25 15.9375C1.25 14.3628 1.87556 12.8526 2.98905 11.7391C4.10255 10.6256 5.61278 10 7.1875 10C8.76222 10 10.2724 10.6256 11.3859 11.7391C12.4994 12.8526 13.125 14.3628 13.125 15.9375V15.94L13.1242 16.0392C13.1224 16.1451 13.0937 16.2489 13.0408 16.3408C12.9879 16.4326 12.9125 16.5095 12.8217 16.5642C11.121 17.5883 9.17272 18.128 7.1875 18.125C5.1275 18.125 3.19917 17.555 1.55417 16.5642C1.46321 16.5096 1.38764 16.4328 1.33457 16.3409C1.28151 16.2491 1.25269 16.1452 1.25083 16.0392L1.25 15.9375ZM14.375 15.94L14.3742 16.06C14.3695 16.3378 14.3032 16.611 14.18 16.86C15.6348 16.9497 17.0878 16.6597 18.3967 16.0183C18.4979 15.9689 18.5838 15.8929 18.6455 15.7986C18.7071 15.7043 18.742 15.5951 18.7467 15.4825C18.7761 14.7835 18.6245 14.0888 18.3066 13.4656C17.9887 12.8424 17.5153 12.3119 16.9321 11.9254C16.349 11.5389 15.6759 11.3096 14.9781 11.2596C14.2803 11.2096 13.5815 11.3406 12.9492 11.64C13.8768 12.8805 14.3769 14.3885 14.3742 15.9375V15.94H14.375Z" fill="#A3A9BA"/>
</svg>
