<svg width="20" height="20" viewBox="0 0 20 20" fill="none" xmlns="http://www.w3.org/2000/svg">
<path fill-rule="evenodd" clip-rule="evenodd" d="M7.7625 6.32C10.1625 3.23583 13.9125 1.25 18.125 1.25C18.2908 1.25 18.4497 1.31585 18.5669 1.43306C18.6842 1.55027 18.75 1.70924 18.75 1.875C18.75 6.08833 16.7642 9.8375 13.68 12.2383C13.8083 13.0419 13.7607 13.8637 13.5405 14.647C13.3203 15.4304 12.9328 16.1566 12.4047 16.7757C11.8766 17.3947 11.2205 17.8918 10.4816 18.2327C9.74274 18.5736 8.93871 18.75 8.125 18.75C7.95924 18.75 7.80027 18.6842 7.68306 18.5669C7.56585 18.4497 7.5 18.2908 7.5 18.125V14.6825C6.68994 14.0428 5.95771 13.3103 5.31833 12.5H1.875C1.70924 12.5 1.55027 12.4342 1.43306 12.3169C1.31585 12.1997 1.25 12.0408 1.25 11.875C1.24993 11.0612 1.42645 10.2571 1.76735 9.51816C2.10826 8.77922 2.60544 8.12304 3.22459 7.59493C3.84374 7.06681 4.57011 6.67932 5.35356 6.45921C6.13702 6.2391 6.9589 6.1916 7.7625 6.32ZM12.5 5.625C12.0027 5.625 11.5258 5.82254 11.1742 6.17417C10.8225 6.52581 10.625 7.00272 10.625 7.5C10.625 7.99728 10.8225 8.47419 11.1742 8.82582C11.5258 9.17746 12.0027 9.375 12.5 9.375C12.9973 9.375 13.4742 9.17746 13.8258 8.82582C14.1775 8.47419 14.375 7.99728 14.375 7.5C14.375 7.00272 14.1775 6.52581 13.8258 6.17417C13.4742 5.82254 12.9973 5.625 12.5 5.625Z" fill="#A3A9BA"/>
<path d="M4.383 14.3683C4.44882 14.3192 4.50434 14.2577 4.54637 14.1871C4.5884 14.1166 4.61613 14.0385 4.62797 13.9572C4.63981 13.876 4.63553 13.7932 4.61537 13.7136C4.59521 13.634 4.55958 13.5591 4.5105 13.4933C4.46142 13.4275 4.39985 13.372 4.32931 13.33C4.25878 13.2879 4.18066 13.2602 4.0994 13.2484C4.01815 13.2365 3.93536 13.2408 3.85577 13.261C3.77617 13.2811 3.70132 13.3167 3.6355 13.3658C2.99624 13.8413 2.49917 14.4826 2.19807 15.2202C1.89696 15.9579 1.80328 16.7638 1.92716 17.5508C1.94731 17.6819 2.00863 17.8032 2.10226 17.8971C2.19589 17.991 2.31698 18.0528 2.448 18.0733C3.23511 18.1971 4.04108 18.1033 4.77872 17.8021C5.51636 17.5008 6.15758 17.0036 6.633 16.3642C6.68366 16.2985 6.72075 16.2234 6.74211 16.1433C6.76347 16.0632 6.76867 15.9796 6.75741 15.8974C6.74615 15.8153 6.71865 15.7362 6.67652 15.6648C6.63439 15.5933 6.57846 15.531 6.512 15.4814C6.44554 15.4318 6.36988 15.3959 6.28941 15.3759C6.20895 15.3558 6.1253 15.352 6.04334 15.3646C5.96137 15.3771 5.88273 15.4059 5.812 15.4492C5.74126 15.4925 5.67985 15.5494 5.63133 15.6167C5.34072 16.0075 4.96264 16.3249 4.52737 16.5434C4.09209 16.7619 3.61171 16.8755 3.12466 16.875C3.12466 15.85 3.618 14.9392 4.383 14.3683Z" fill="#A3A9BA"/>
</svg>
