<?xml version="1.0" encoding="UTF-8"?>
<!DOCTYPE svg PUBLIC "-//W3C//DTD SVG 1.1//EN" "http://www.w3.org/Graphics/SVG/1.1/DTD/svg11.dtd">
<svg xmlns="http://www.w3.org/2000/svg" version="1.1" width="280px" height="280px" style="shape-rendering:geometricPrecision; text-rendering:geometricPrecision; image-rendering:optimizeQuality; fill-rule:evenodd; clip-rule:evenodd" xmlns:xlink="http://www.w3.org/1999/xlink">
<g><path style="opacity:0.979" fill="#fed38f" d="M 124.5,-0.5 C 134.5,-0.5 144.5,-0.5 154.5,-0.5C 192.775,4.4749 224.108,21.8082 248.5,51.5C 248.427,53.0269 249.094,54.0269 250.5,54.5C 254.237,58.3021 257.237,62.6355 259.5,67.5C 259.427,69.0269 260.094,70.0269 261.5,70.5C 264.83,75.8269 267.663,81.4936 270,87.5C 273.88,99.1112 277.046,110.778 279.5,122.5C 279.5,133.833 279.5,145.167 279.5,156.5C 270.14,212.366 239.14,250.866 186.5,272C 176.451,274.846 166.451,277.346 156.5,279.5C 145.167,279.5 133.833,279.5 122.5,279.5C 52.9262,265.926 11.9262,224.26 -0.5,154.5C -0.5,144.5 -0.5,134.5 -0.5,124.5C 12.1667,53.8333 53.8333,12.1667 124.5,-0.5 Z"/></g>
<g><path style="opacity:1" fill="#ff672a" d="M 158.5,13.5 C 156.833,13.5 155.167,13.5 153.5,13.5C 153.5,14.5 153.5,15.5 153.5,16.5C 153.5,16.8333 153.5,17.1667 153.5,17.5C 127.251,16.684 102.251,22.0173 78.5,33.5C 78.1667,33.3333 77.8333,33.1667 77.5,33C 80.7044,29.9641 83.7044,26.7974 86.5,23.5C 109.554,12.6447 133.554,9.31135 158.5,13.5 Z"/></g>
<g><path style="opacity:1" fill="#ff5339" d="M 153.5,16.5 C 165.356,18.404 177.022,21.0707 188.5,24.5C 194.255,29.0443 200.588,32.5443 207.5,35C 211.785,39.4406 216.785,42.9406 222.5,45.5C 225.818,49.3181 229.318,52.9848 233,56.5C 234.322,59.965 235.822,63.2983 237.5,66.5C 231.231,59.1463 224.564,51.9796 217.5,45C 213.196,44.9691 209.196,43.9691 205.5,42C 198.04,35.8765 190.04,30.5432 181.5,26C 177.535,24.8735 173.535,23.8735 169.5,23C 168.833,22.3333 168.167,21.6667 167.5,21C 162.898,19.8776 158.232,19.3776 153.5,19.5C 153.5,18.8333 153.5,18.1667 153.5,17.5C 153.5,17.1667 153.5,16.8333 153.5,16.5 Z"/></g>
<g><path style="opacity:1" fill="#ff3e27" d="M 158.5,13.5 C 198.208,20.0442 228.708,40.3776 250,74.5C 253.4,80.6294 256.234,86.9627 258.5,93.5C 259.055,97.5841 258.055,98.2508 255.5,95.5C 251.699,85.8949 246.866,76.8949 241,68.5C 240.184,67.1772 239.017,66.5106 237.5,66.5C 235.822,63.2983 234.322,59.965 233,56.5C 229.318,52.9848 225.818,49.3181 222.5,45.5C 216.785,42.9406 211.785,39.4406 207.5,35C 200.588,32.5443 194.255,29.0443 188.5,24.5C 177.022,21.0707 165.356,18.404 153.5,16.5C 153.5,15.5 153.5,14.5 153.5,13.5C 155.167,13.5 156.833,13.5 158.5,13.5 Z"/></g>
<g><path style="opacity:1" fill="#ffa573" d="M 153.5,25.5 C 153.5,27.5 153.5,29.5 153.5,31.5C 153.979,35.9113 153.312,40.078 151.5,44C 145.509,44.4995 139.509,44.6662 133.5,44.5C 123.161,44.3335 112.828,44.5002 102.5,45C 106.743,50.1544 110.743,55.4878 114.5,61C 115.996,61.5074 117.163,61.0074 118,59.5C 118.507,60.9961 118.007,62.1627 116.5,63C 118.991,66.8414 121.657,70.5081 124.5,74C 124.452,75.033 124.119,75.3663 123.5,75C 121.19,73.3626 119.69,71.196 119,68.5C 118.08,68.9302 117.247,69.2635 116.5,69.5C 119.088,72.7541 121.588,76.0874 124,79.5C 124.333,84.1667 124.667,88.8333 125,93.5C 125.176,90.1182 125.676,86.7848 126.5,83.5C 130.823,88.7939 135.156,94.1272 139.5,99.5C 134.714,100.093 134.38,101.76 138.5,104.5C 139.524,103.147 140.857,102.48 142.5,102.5C 135.365,108.802 128.699,115.636 122.5,123C 117.106,123.979 111.772,125.145 106.5,126.5C 103.695,125.681 100.695,125.181 97.5,125C 106.109,117.213 114.443,109.213 122.5,101C 112.172,100.5 101.839,100.334 91.5,100.5C 91.599,95.5241 91.599,90.8574 91.5,86.5C 94.2004,85.1712 96.5337,83.1712 98.5,80.5C 98.3333,80.1667 98.1667,79.8333 98,79.5C 95.81,82.2486 94.1433,81.9153 93,78.5C 92.8313,71.1441 92.3313,63.8108 91.5,56.5C 85.1812,62.3185 79.0145,68.3185 73,74.5C 72.7571,81.2147 72.2571,87.8813 71.5,94.5C 60.5,94.5 49.5,94.5 38.5,94.5C 38.631,93.7611 38.4643,93.0944 38,92.5C 37.3457,93.6956 36.8457,93.6956 36.5,92.5C 42.9458,80.0642 50.9458,68.8975 60.5,59C 64.375,55.6193 68.375,52.4526 72.5,49.5C 72.3338,55.8421 72.5005,62.1754 73,68.5C 79.3694,62.2981 85.5361,55.9648 91.5,49.5C 97.1929,44.1388 102.86,38.8054 108.5,33.5C 110.421,30.4126 113.087,28.2459 116.5,27C 128.767,24.5455 141.101,24.0455 153.5,25.5 Z"/></g>
<g><path style="opacity:1" fill="#ff9973" d="M 191.5,55.5 C 191.5,64.5 191.5,73.5 191.5,82.5C 183.896,82.4211 176.563,83.7544 169.5,86.5C 159.187,73.2355 148.853,59.9022 138.5,46.5C 136.709,45.8302 135.042,45.1635 133.5,44.5C 139.509,44.6662 145.509,44.4995 151.5,44C 153.312,40.078 153.979,35.9113 153.5,31.5C 154.117,31.3893 154.617,31.056 155,30.5C 162.47,32.836 169.637,36.0026 176.5,40C 179.972,45.1064 183.806,49.9397 188,54.5C 188.206,51.3771 188.873,48.3771 190,45.5C 190.179,49.0252 190.679,52.3586 191.5,55.5 Z"/></g>
<g><path style="opacity:1" fill="#ff7c5a" d="M 153.5,21.5 C 166.897,23.3542 179.397,27.6875 191,34.5C 191.494,36.1341 191.66,37.8008 191.5,39.5C 190.751,38.469 190.085,37.3024 189.5,36C 178.173,30.0027 166.173,26.1694 153.5,24.5C 153.5,23.5 153.5,22.5 153.5,21.5 Z"/></g>
<g><path style="opacity:1" fill="#ff9157" d="M 153.5,21.5 C 153.5,22.5 153.5,23.5 153.5,24.5C 153.5,24.8333 153.5,25.1667 153.5,25.5C 141.101,24.0455 128.767,24.5455 116.5,27C 113.087,28.2459 110.421,30.4126 108.5,33.5C 97.1986,35.8183 86.8653,40.3183 77.5,47C 74.975,47.8959 72.8083,47.3959 71,45.5C 63.7566,52.0073 56.4233,58.3406 49,64.5C 48.0375,68.4199 46.0375,71.7533 43,74.5C 40.6667,78.8333 38.3333,83.1667 36,87.5C 35.3292,88.2524 34.4959,88.5858 33.5,88.5C 33.5,85.5 33.5,82.5 33.5,79.5C 38.4204,72.3992 43.5871,65.3992 49,58.5C 52.2721,55.473 55.4387,52.3063 58.5,49C 60.9005,48.8142 63.2338,48.3142 65.5,47.5C 65.0688,46.7065 64.7355,45.8732 64.5,45C 67.608,40.8278 71.608,39.1612 76.5,40C 78.1667,39 79.5,37.6667 80.5,36C 94.0029,30.7216 107.67,26.0549 121.5,22C 132.152,20.2724 142.818,20.1057 153.5,21.5 Z"/></g>
<g><path style="opacity:1" fill="#ff9f74" d="M 133.5,44.5 C 135.042,45.1635 136.709,45.8302 138.5,46.5C 148.853,59.9022 159.187,73.2355 169.5,86.5C 160.045,91.0609 151.045,96.3942 142.5,102.5C 140.857,102.48 139.524,103.147 138.5,104.5C 134.38,101.76 134.714,100.093 139.5,99.5C 135.156,94.1272 130.823,88.7939 126.5,83.5C 125.676,86.7848 125.176,90.1182 125,93.5C 124.667,88.8333 124.333,84.1667 124,79.5C 121.588,76.0874 119.088,72.7541 116.5,69.5C 117.247,69.2635 118.08,68.9302 119,68.5C 119.69,71.196 121.19,73.3626 123.5,75C 124.119,75.3663 124.452,75.033 124.5,74C 121.657,70.5081 118.991,66.8414 116.5,63C 118.007,62.1627 118.507,60.9961 118,59.5C 117.163,61.0074 115.996,61.5074 114.5,61C 110.743,55.4878 106.743,50.1544 102.5,45C 112.828,44.5002 123.161,44.3335 133.5,44.5 Z"/></g>
<g><path style="opacity:1" fill="#ff7b62" d="M 191.5,39.5 C 194.301,40.7347 196.968,42.2347 199.5,44C 202.553,44.1786 205.553,44.6786 208.5,45.5C 215.715,49.5455 222.215,54.5455 228,60.5C 231.689,64.4731 234.689,68.8064 237,73.5C 237.333,76.1667 237.667,78.8333 238,81.5C 241.72,88.9104 245.887,95.9104 250.5,102.5C 250.167,103.167 249.833,103.833 249.5,104.5C 249.167,104.5 248.833,104.5 248.5,104.5C 246.528,101.916 245.528,98.9164 245.5,95.5C 244.448,95.3505 243.448,95.5172 242.5,96C 239.631,99.0379 236.631,101.871 233.5,104.5C 233.5,96.8333 233.5,89.1667 233.5,81.5C 233.663,79.1432 233.497,76.8098 233,74.5C 228.577,68.0725 223.41,62.2392 217.5,57C 215.285,55.9562 212.952,55.2895 210.5,55C 205.186,49.4898 198.853,45.9898 191.5,44.5C 191.5,42.8333 191.5,41.1667 191.5,39.5 Z"/></g>
<g><path style="opacity:1" fill="#ffa564" d="M 91.5,49.5 C 85.5361,55.9648 79.3694,62.2981 73,68.5C 72.5005,62.1754 72.3338,55.8421 72.5,49.5C 76.6463,48.353 80.9796,48.1864 85.5,49C 82.5541,51.9459 79.5541,54.9459 76.5,58C 76.8333,58.1667 77.1667,58.3333 77.5,58.5C 80.9846,55.516 84.318,52.3493 87.5,49C 88.9285,48.4209 90.2618,48.5876 91.5,49.5 Z"/></g>
<g><path style="opacity:1" fill="#ff6a4f" d="M 153.5,19.5 C 158.232,19.3776 162.898,19.8776 167.5,21C 168.167,21.6667 168.833,22.3333 169.5,23C 173.535,23.8735 177.535,24.8735 181.5,26C 190.04,30.5432 198.04,35.8765 205.5,42C 209.196,43.9691 213.196,44.9691 217.5,45C 224.564,51.9796 231.231,59.1463 237.5,66.5C 238.167,68.5 238.833,70.5 239.5,72.5C 239.338,74.5273 239.505,76.5273 240,78.5C 244.689,86.032 249.522,93.532 254.5,101C 256.066,104.363 257.232,107.863 258,111.5C 259.033,120.861 260.2,130.194 261.5,139.5C 260.832,148.837 260.166,158.17 259.5,167.5C 259.141,172.17 257.808,176.503 255.5,180.5C 257.6,168.097 258.934,155.597 259.5,143C 259.61,136.933 258.943,131.1 257.5,125.5C 256.244,118.463 254.744,111.463 253,104.5C 252.583,103.244 251.75,102.577 250.5,102.5C 245.887,95.9104 241.72,88.9104 238,81.5C 237.667,78.8333 237.333,76.1667 237,73.5C 234.689,68.8064 231.689,64.4731 228,60.5C 222.215,54.5455 215.715,49.5455 208.5,45.5C 205.553,44.6786 202.553,44.1786 199.5,44C 196.968,42.2347 194.301,40.7347 191.5,39.5C 191.66,37.8008 191.494,36.1341 191,34.5C 179.397,27.6875 166.897,23.3542 153.5,21.5C 153.5,20.8333 153.5,20.1667 153.5,19.5 Z"/></g>
<g><path style="opacity:0.753" fill="#fd808d" d="M 248.5,51.5 C 249.906,51.9731 250.573,52.9731 250.5,54.5C 249.094,54.0269 248.427,53.0269 248.5,51.5 Z"/></g>
<g><path style="opacity:1" fill="#ff9271" d="M 191.5,55.5 C 196.519,55.7522 201.519,56.2522 206.5,57C 215.475,65.132 223.475,73.9654 230.5,83.5C 215.554,99.1126 200.221,114.446 184.5,129.5C 188.033,123.768 191.033,117.768 193.5,111.5C 196.785,102.125 198.451,92.4585 198.5,82.5C 196.167,82.5 193.833,82.5 191.5,82.5C 191.5,73.5 191.5,64.5 191.5,55.5 Z"/></g>
<g><path style="opacity:1" fill="#ff8c6e" d="M 153.5,24.5 C 166.173,26.1694 178.173,30.0027 189.5,36C 190.085,37.3024 190.751,38.469 191.5,39.5C 191.5,41.1667 191.5,42.8333 191.5,44.5C 198.853,45.9898 205.186,49.4898 210.5,55C 212.952,55.2895 215.285,55.9562 217.5,57C 223.41,62.2392 228.577,68.0725 233,74.5C 233.497,76.8098 233.663,79.1432 233.5,81.5C 232.5,82.1667 231.5,82.8333 230.5,83.5C 223.475,73.9654 215.475,65.132 206.5,57C 201.519,56.2522 196.519,55.7522 191.5,55.5C 190.679,52.3586 190.179,49.0252 190,45.5C 188.873,48.3771 188.206,51.3771 188,54.5C 183.806,49.9397 179.972,45.1064 176.5,40C 169.637,36.0026 162.47,32.836 155,30.5C 154.617,31.056 154.117,31.3893 153.5,31.5C 153.5,29.5 153.5,27.5 153.5,25.5C 153.5,25.1667 153.5,24.8333 153.5,24.5 Z"/></g>
<g><path style="opacity:1" fill="#ff7c3d" d="M 153.5,17.5 C 153.5,18.1667 153.5,18.8333 153.5,19.5C 153.5,20.1667 153.5,20.8333 153.5,21.5C 142.818,20.1057 132.152,20.2724 121.5,22C 107.67,26.0549 94.0029,30.7216 80.5,36C 79.5,37.6667 78.1667,39 76.5,40C 71.608,39.1612 67.608,40.8278 64.5,45C 64.7355,45.8732 65.0688,46.7065 65.5,47.5C 63.2338,48.3142 60.9005,48.8142 58.5,49C 55.4387,52.3063 52.2721,55.473 49,58.5C 43.5871,65.3992 38.4204,72.3992 33.5,79.5C 33.5,78.1667 33.5,76.8333 33.5,75.5C 41.4646,64.6848 50.4646,54.5182 60.5,45C 58.5273,44.5045 56.5273,44.3379 54.5,44.5C 64.0793,35.935 74.746,28.935 86.5,23.5C 83.7044,26.7974 80.7044,29.9641 77.5,33C 77.8333,33.1667 78.1667,33.3333 78.5,33.5C 102.251,22.0173 127.251,16.684 153.5,17.5 Z"/></g>
<g><path style="opacity:1" fill="#ff6f2d" d="M 54.5,44.5 C 56.5273,44.3379 58.5273,44.5045 60.5,45C 50.4646,54.5182 41.4646,64.6848 33.5,75.5C 33.5,73.5 33.5,71.5 33.5,69.5C 38.6257,59.6979 45.6257,51.3645 54.5,44.5 Z"/></g>
<g><path style="opacity:0.424" fill="#ff919c" d="M 259.5,67.5 C 260.906,67.9731 261.573,68.9731 261.5,70.5C 260.094,70.0269 259.427,69.0269 259.5,67.5 Z"/></g>
<g><path style="opacity:1" fill="#ffaf76" d="M 91.5,86.5 C 88.2569,87.58 84.9236,87.7466 81.5,87C 85.0695,83.9887 87.7362,80.822 89.5,77.5C 83.4796,83.1883 77.4796,88.8549 71.5,94.5C 72.2571,87.8813 72.7571,81.2147 73,74.5C 79.0145,68.3185 85.1812,62.3185 91.5,56.5C 92.3313,63.8108 92.8313,71.1441 93,78.5C 94.1433,81.9153 95.81,82.2486 98,79.5C 98.1667,79.8333 98.3333,80.1667 98.5,80.5C 96.5337,83.1712 94.2004,85.1712 91.5,86.5 Z"/></g>
<g><path style="opacity:1" fill="#ff9e68" d="M 108.5,33.5 C 102.86,38.8054 97.1929,44.1388 91.5,49.5C 90.2618,48.5876 88.9285,48.4209 87.5,49C 84.318,52.3493 80.9846,55.516 77.5,58.5C 77.1667,58.3333 76.8333,58.1667 76.5,58C 79.5541,54.9459 82.5541,51.9459 85.5,49C 80.9796,48.1864 76.6463,48.353 72.5,49.5C 68.375,52.4526 64.375,55.6193 60.5,59C 50.9458,68.8975 42.9458,80.0642 36.5,92.5C 36.8457,93.6956 37.3457,93.6956 38,92.5C 38.4643,93.0944 38.631,93.7611 38.5,94.5C 36.4458,94.6347 34.7791,93.968 33.5,92.5C 33.5,91.5 33.5,90.5 33.5,89.5C 33.5,89.1667 33.5,88.8333 33.5,88.5C 34.4959,88.5858 35.3292,88.2524 36,87.5C 38.3333,83.1667 40.6667,78.8333 43,74.5C 46.0375,71.7533 48.0375,68.4199 49,64.5C 56.4233,58.3406 63.7566,52.0073 71,45.5C 72.8083,47.3959 74.975,47.8959 77.5,47C 86.8653,40.3183 97.1986,35.8183 108.5,33.5 Z"/></g>
<g><path style="opacity:1" fill="#fffdfc" d="M 191.5,82.5 C 193.833,82.5 196.167,82.5 198.5,82.5C 198.451,92.4585 196.785,102.125 193.5,111.5C 184.507,127.844 172.841,142.178 158.5,154.5C 157.614,155.325 157.281,156.325 157.5,157.5C 155.802,162.632 154.468,167.966 153.5,173.5C 148.526,178.139 143.526,182.805 138.5,187.5C 136.441,185.734 135.107,183.401 134.5,180.5C 133.611,176.569 132.278,172.902 130.5,169.5C 126.466,169.198 122.132,169.032 117.5,169C 115.63,171.04 113.63,172.873 111.5,174.5C 110.833,174.5 110.167,174.5 109.5,174.5C 108.604,171.931 106.938,169.931 104.5,168.5C 106.918,166.091 108.918,163.424 110.5,160.5C 109.068,157.673 108.401,154.673 108.5,151.5C 102.494,148.771 96.4944,145.938 90.5,143C 92.6541,140.013 94.9875,137.18 97.5,134.5C 99.8998,131.097 102.9,128.43 106.5,126.5C 111.772,125.145 117.106,123.979 122.5,123C 128.699,115.636 135.365,108.802 142.5,102.5C 151.045,96.3942 160.045,91.0609 169.5,86.5C 176.563,83.7544 183.896,82.4211 191.5,82.5 Z"/></g>
<g><path style="opacity:1" fill="#ffab67" d="M 91.5,100.5 C 101.839,100.334 112.172,100.5 122.5,101C 114.443,109.213 106.109,117.213 97.5,125C 100.695,125.181 103.695,125.681 106.5,126.5C 102.9,128.43 99.8998,131.097 97.5,134.5C 94.819,132.312 92.6523,129.646 91,126.5C 90.3333,127.833 89.3333,128.833 88,129.5C 87.4926,128.004 87.9926,126.837 89.5,126C 88.2068,125.51 86.8734,125.343 85.5,125.5C 87.7706,123.734 89.9373,121.734 92,119.5C 91.892,113.188 91.7254,106.855 91.5,100.5 Z"/></g>
<g><path style="opacity:1" fill="#ff8971" d="M 248.5,104.5 C 247.5,105.833 246.5,107.167 245.5,108.5C 241.833,111.833 238.167,115.167 234.5,118.5C 233.515,114.366 233.182,110.032 233.5,105.5C 233.5,105.167 233.5,104.833 233.5,104.5C 236.631,101.871 239.631,99.0379 242.5,96C 243.448,95.5172 244.448,95.3505 245.5,95.5C 245.528,98.9164 246.528,101.916 248.5,104.5 Z"/></g>
<g><path style="opacity:1" fill="#ffb876" d="M 91.5,86.5 C 91.599,90.8574 91.599,95.5241 91.5,100.5C 91.7254,106.855 91.892,113.188 92,119.5C 89.9373,121.734 87.7706,123.734 85.5,125.5C 82.7531,125.813 80.0865,125.48 77.5,124.5C 81.1511,120.348 84.9844,116.348 89,112.5C 89.6667,111.833 89.6667,111.167 89,110.5C 78.9645,120.368 69.1312,130.368 59.5,140.5C 51.5206,148.145 43.5206,155.812 35.5,163.5C 34.914,163.291 34.414,162.957 34,162.5C 33.3333,160.5 33.3333,158.5 34,156.5C 43.681,146.986 53.181,137.319 62.5,127.5C 51.8449,136.638 41.3449,146.638 31,157.5C 30.7744,154.905 30.2744,152.405 29.5,150C 38.1667,141.333 46.8333,132.667 55.5,124C 54.8333,123.333 54.1667,123.333 53.5,124C 45.6667,131.833 37.8333,139.667 30,147.5C 29.4743,144.728 28.6409,142.062 27.5,139.5C 25.5378,140.854 24.5378,140.187 24.5,137.5C 24.7284,135.793 25.0617,134.126 25.5,132.5C 27.2659,130.229 29.2659,128.063 31.5,126C 30.0039,125.493 28.8373,125.993 28,127.5C 27.3076,122.933 28.4742,118.933 31.5,115.5C 30.3966,115.002 29.3966,114.669 28.5,114.5C 30.3093,112.11 30.8093,109.444 30,106.5C 31.599,104.944 33.099,103.277 34.5,101.5C 33.0682,101.415 31.7349,100.415 30.5,98.5C 31.5133,96.4734 32.5133,94.4734 33.5,92.5C 34.7791,93.968 36.4458,94.6347 38.5,94.5C 49.5,94.5 60.5,94.5 71.5,94.5C 77.4796,88.8549 83.4796,83.1883 89.5,77.5C 87.7362,80.822 85.0695,83.9887 81.5,87C 84.9236,87.7466 88.2569,87.58 91.5,86.5 Z"/></g>
<g><path style="opacity:1" fill="#ff9e7a" d="M 245.5,108.5 C 246.894,114.303 248.228,120.136 249.5,126C 249.637,137.16 249.304,148.326 248.5,159.5C 246.85,165.748 245.016,172.082 243,178.5C 243.315,173.676 243.315,169.009 243,164.5C 240.667,161.167 238.333,157.833 236,154.5C 235.16,157.477 234.493,160.811 234,164.5C 233.667,160.167 233.333,155.833 233,151.5C 229.862,146.729 226.362,142.229 222.5,138C 230.992,139.839 234.659,136.505 233.5,128C 233.467,125.39 232.8,123.223 231.5,121.5C 232.306,120.272 233.306,119.272 234.5,118.5C 238.167,115.167 241.833,111.833 245.5,108.5 Z"/></g>
<g><path style="opacity:1" fill="#ff956e" d="M 248.5,104.5 C 248.833,104.5 249.167,104.5 249.5,104.5C 256.854,127.328 257.354,150.328 251,173.5C 248.901,181.788 246.068,189.788 242.5,197.5C 242.167,197.5 241.833,197.5 241.5,197.5C 240.167,197.5 238.833,197.5 237.5,197.5C 241.194,190.103 244.361,182.437 247,174.5C 247.748,169.519 248.248,164.519 248.5,159.5C 249.304,148.326 249.637,137.16 249.5,126C 248.228,120.136 246.894,114.303 245.5,108.5C 246.5,107.167 247.5,105.833 248.5,104.5 Z"/></g>
<g><path style="opacity:1" fill="#ffa75b" d="M 157.5,115.5 C 159.679,115.84 161.512,116.84 163,118.5C 164.337,122.026 164.837,125.692 164.5,129.5C 163.385,119.097 157.718,115.43 147.5,118.5C 148.058,117.21 149.058,116.377 150.5,116C 152.81,115.503 155.143,115.337 157.5,115.5 Z"/></g>
<g><path style="opacity:1" fill="#ffcaa7" d="M 164.5,129.5 C 160.584,136.38 154.917,138.213 147.5,135C 144.944,133.945 143.277,132.112 142.5,129.5C 143.314,127.369 143.814,125.036 144,122.5C 144.66,120.676 145.827,119.343 147.5,118.5C 157.718,115.43 163.385,119.097 164.5,129.5 Z"/></g>
<g><path style="opacity:1" fill="#ff9168" d="M 233.5,81.5 C 233.5,89.1667 233.5,96.8333 233.5,104.5C 233.5,104.833 233.5,105.167 233.5,105.5C 218.833,119.5 204.5,133.833 190.5,148.5C 188.537,149.96 186.704,151.627 185,153.5C 184.626,152.584 184.126,151.75 183.5,151C 184.833,149.667 186.167,148.333 187.5,147C 187.043,146.586 186.709,146.086 186.5,145.5C 187.833,143.833 189.167,142.167 190.5,140.5C 190.192,139.692 189.692,139.025 189,138.5C 186.667,139.5 184.333,140.5 182,141.5C 180.981,139.498 180.148,137.498 179.5,135.5C 181.177,133.46 182.844,131.46 184.5,129.5C 200.221,114.446 215.554,99.1126 230.5,83.5C 231.5,82.8333 232.5,82.1667 233.5,81.5 Z"/></g>
<g><path style="opacity:1" fill="#ff8230" d="M 157.5,115.5 C 155.143,115.337 152.81,115.503 150.5,116C 149.058,116.377 148.058,117.21 147.5,118.5C 145.827,119.343 144.66,120.676 144,122.5C 143.814,125.036 143.314,127.369 142.5,129.5C 141.942,118.379 146.942,113.713 157.5,115.5 Z"/></g>
<g><path style="opacity:1" fill="#ff9873" d="M 233.5,105.5 C 233.182,110.032 233.515,114.366 234.5,118.5C 233.306,119.272 232.306,120.272 231.5,121.5C 220.779,132.887 209.779,143.887 198.5,154.5C 197.883,154.611 197.383,154.944 197,155.5C 195.306,152.642 193.139,150.309 190.5,148.5C 204.5,133.833 218.833,119.5 233.5,105.5 Z"/></g>
<g><path style="opacity:1" fill="#ffa57a" d="M 231.5,121.5 C 232.8,123.223 233.467,125.39 233.5,128C 234.659,136.505 230.992,139.839 222.5,138C 226.362,142.229 229.862,146.729 233,151.5C 233.333,155.833 233.667,160.167 234,164.5C 234.493,160.811 235.16,157.477 236,154.5C 238.333,157.833 240.667,161.167 243,164.5C 243.315,169.009 243.315,173.676 243,178.5C 245.016,172.082 246.85,165.748 248.5,159.5C 248.248,164.519 247.748,169.519 247,174.5C 244.361,182.437 241.194,190.103 237.5,197.5C 236.167,197.5 234.833,197.5 233.5,197.5C 232.167,197.5 230.833,197.5 229.5,197.5C 230.323,195.545 230.49,193.545 230,191.5C 219.833,179.799 210.667,167.465 202.5,154.5C 201.167,154.5 199.833,154.5 198.5,154.5C 209.779,143.887 220.779,132.887 231.5,121.5 Z"/></g>
<g><path style="opacity:1" fill="#ff5e41" d="M 239.5,72.5 C 241.083,73.9355 242.583,75.6022 244,77.5C 244.483,78.448 244.649,79.448 244.5,80.5C 245.5,80.5 246.5,80.5 247.5,80.5C 247.747,84.4107 249.247,87.744 252,90.5C 252.333,92.5 252.667,94.5 253,96.5C 255.579,98.5339 257.246,101.201 258,104.5C 262.478,122.948 263.645,141.615 261.5,160.5C 261.662,162.527 261.495,164.527 261,166.5C 260.617,167.056 260.117,167.389 259.5,167.5C 260.166,158.17 260.832,148.837 261.5,139.5C 260.2,130.194 259.033,120.861 258,111.5C 257.232,107.863 256.066,104.363 254.5,101C 249.522,93.532 244.689,86.032 240,78.5C 239.505,76.5273 239.338,74.5273 239.5,72.5 Z"/></g>
<g><path style="opacity:1" fill="#ffb167" d="M 85.5,125.5 C 86.8734,125.343 88.2068,125.51 89.5,126C 87.9926,126.837 87.4926,128.004 88,129.5C 89.3333,128.833 90.3333,127.833 91,126.5C 92.6523,129.646 94.819,132.312 97.5,134.5C 94.9875,137.18 92.6541,140.013 90.5,143C 96.4944,145.938 102.494,148.771 108.5,151.5C 106.181,150.833 103.847,150.666 101.5,151C 96.6301,155.702 91.9634,160.535 87.5,165.5C 85.5372,166.96 83.7038,168.627 82,170.5C 80.4624,165.898 78.4624,165.565 76,169.5C 75.0421,162.372 74.7088,155.372 75,148.5C 74.1072,149.711 73.2739,149.711 72.5,148.5C 75.4985,144.847 76.1651,140.847 74.5,136.5C 75.58,133.257 75.7466,129.924 75,126.5C 70.2979,131.37 65.4646,136.037 60.5,140.5C 60.1667,140.5 59.8333,140.5 59.5,140.5C 69.1312,130.368 78.9645,120.368 89,110.5C 89.6667,111.167 89.6667,111.833 89,112.5C 84.9844,116.348 81.1511,120.348 77.5,124.5C 80.0865,125.48 82.7531,125.813 85.5,125.5 Z"/></g>
<g><path style="opacity:1" fill="#ff4f2d" d="M 237.5,66.5 C 239.017,66.5106 240.184,67.1772 241,68.5C 246.866,76.8949 251.699,85.8949 255.5,95.5C 258.055,98.2508 259.055,97.5841 258.5,93.5C 267.559,115.672 269.892,138.672 265.5,162.5C 264.167,161.833 262.833,161.167 261.5,160.5C 263.645,141.615 262.478,122.948 258,104.5C 257.246,101.201 255.579,98.5339 253,96.5C 252.667,94.5 252.333,92.5 252,90.5C 249.247,87.744 247.747,84.4107 247.5,80.5C 246.5,80.5 245.5,80.5 244.5,80.5C 244.649,79.448 244.483,78.448 244,77.5C 242.583,75.6022 241.083,73.9355 239.5,72.5C 238.833,70.5 238.167,68.5 237.5,66.5 Z"/></g>
<g><path style="opacity:1" fill="#ffa649" d="M 33.5,79.5 C 33.5,82.5 33.5,85.5 33.5,88.5C 33.5,88.8333 33.5,89.1667 33.5,89.5C 32.6236,89.3691 31.9569,89.7025 31.5,90.5C 28.4797,96.0333 26.1463,101.867 24.5,108C 24.7355,108.873 25.0688,109.707 25.5,110.5C 24.4337,114.01 23.4337,117.51 22.5,121C 23.3081,121.308 23.9747,121.808 24.5,122.5C 23.5197,123.981 22.353,125.315 21,126.5C 20.8333,128 20.6667,129.5 20.5,131C 20.5239,137.774 20.5239,144.608 20.5,151.5C 20.5492,156.34 21.8826,161.007 24.5,165.5C 23.8662,169.536 24.3662,173.536 26,177.5C 31.9511,188.922 38.4511,199.922 45.5,210.5C 45.1667,211.5 44.5,212.167 43.5,212.5C 43.6495,211.448 43.4828,210.448 43,209.5C 39.4633,203.732 35.4633,198.399 31,193.5C 21.2933,173.812 16.7933,152.812 17.5,130.5C 17.5653,121.376 18.5653,112.376 20.5,103.5C 23.9896,95.8525 27.4896,88.1858 31,80.5C 31.6708,79.7476 32.5041,79.4142 33.5,79.5 Z"/></g>
<g><path style="opacity:1" fill="#ffb15d" d="M 33.5,89.5 C 33.5,90.5 33.5,91.5 33.5,92.5C 32.5133,94.4734 31.5133,96.4734 30.5,98.5C 31.7349,100.415 33.0682,101.415 34.5,101.5C 33.099,103.277 31.599,104.944 30,106.5C 30.8093,109.444 30.3093,112.11 28.5,114.5C 29.3966,114.669 30.3966,115.002 31.5,115.5C 28.4742,118.933 27.3076,122.933 28,127.5C 28.8373,125.993 30.0039,125.493 31.5,126C 29.2659,128.063 27.2659,130.229 25.5,132.5C 23.1484,134.144 21.8151,136.477 21.5,139.5C 21.9005,141.434 22.9005,142.934 24.5,144C 22.9716,145.648 22.3049,147.648 22.5,150C 22.7683,153.574 23.435,157.074 24.5,160.5C 26.9043,169.604 30.071,178.271 34,186.5C 39.0707,193.631 43.9041,200.965 48.5,208.5C 47.7095,209.401 46.7095,210.068 45.5,210.5C 38.4511,199.922 31.9511,188.922 26,177.5C 24.3662,173.536 23.8662,169.536 24.5,165.5C 21.8826,161.007 20.5492,156.34 20.5,151.5C 20.5239,144.608 20.5239,137.774 20.5,131C 20.6667,129.5 20.8333,128 21,126.5C 22.353,125.315 23.5197,123.981 24.5,122.5C 23.9747,121.808 23.3081,121.308 22.5,121C 23.4337,117.51 24.4337,114.01 25.5,110.5C 25.0688,109.707 24.7355,108.873 24.5,108C 26.1463,101.867 28.4797,96.0333 31.5,90.5C 31.9569,89.7025 32.6236,89.3691 33.5,89.5 Z"/></g>
<g><path style="opacity:1" fill="#ffbd79" d="M 74.5,136.5 C 66.8333,143.5 59.5,150.833 52.5,158.5C 47.187,163.478 41.8537,168.478 36.5,173.5C 34.661,171.473 34.161,169.14 35,166.5C 43.7023,157.965 52.2023,149.298 60.5,140.5C 65.4646,136.037 70.2979,131.37 75,126.5C 75.7466,129.924 75.58,133.257 74.5,136.5 Z"/></g>
<g><path style="opacity:1" fill="#ff7641" d="M 193.5,111.5 C 191.033,117.768 188.033,123.768 184.5,129.5C 182.844,131.46 181.177,133.46 179.5,135.5C 172.399,144.606 165.066,151.939 157.5,157.5C 157.281,156.325 157.614,155.325 158.5,154.5C 172.841,142.178 184.507,127.844 193.5,111.5 Z"/></g>
<g><path style="opacity:1" fill="#ffac7b" d="M 198.5,154.5 C 199.833,154.5 201.167,154.5 202.5,154.5C 210.667,167.465 219.833,179.799 230,191.5C 230.49,193.545 230.323,195.545 229.5,197.5C 213.167,197.5 196.833,197.5 180.5,197.5C 180.167,197.5 179.833,197.5 179.5,197.5C 179.586,196.504 179.252,195.671 178.5,195C 171.014,194.038 163.68,194.538 156.5,196.5C 164.194,188.14 172.194,180.14 180.5,172.5C 186.188,166.146 192.188,160.146 198.5,154.5 Z"/></g>
<g><path style="opacity:1" fill="#ff9e6d" d="M 179.5,135.5 C 180.148,137.498 180.981,139.498 182,141.5C 184.333,140.5 186.667,139.5 189,138.5C 189.692,139.025 190.192,139.692 190.5,140.5C 189.167,142.167 187.833,143.833 186.5,145.5C 186.709,146.086 187.043,146.586 187.5,147C 186.167,148.333 184.833,149.667 183.5,151C 184.126,151.75 184.626,152.584 185,153.5C 186.704,151.627 188.537,149.96 190.5,148.5C 193.139,150.309 195.306,152.642 197,155.5C 197.383,154.944 197.883,154.611 198.5,154.5C 192.188,160.146 186.188,166.146 180.5,172.5C 177.885,170.621 175.719,168.288 174,165.5C 168.699,169.8 163.699,174.466 159,179.5C 158.308,178.975 157.808,178.308 157.5,177.5C 161.652,172.453 161.318,171.787 156.5,175.5C 155.817,175.137 155.15,174.804 154.5,174.5C 154.5,173.833 154.167,173.5 153.5,173.5C 154.468,167.966 155.802,162.632 157.5,157.5C 165.066,151.939 172.399,144.606 179.5,135.5 Z"/></g>
<g><path style="opacity:1" fill="#ffbb6d" d="M 59.5,140.5 C 59.8333,140.5 60.1667,140.5 60.5,140.5C 52.2023,149.298 43.7023,157.965 35,166.5C 34.161,169.14 34.661,171.473 36.5,173.5C 41.8537,168.478 47.187,163.478 52.5,158.5C 52.9528,159.458 53.6195,160.292 54.5,161C 48.841,165.475 49.1744,166.309 55.5,163.5C 58.028,164.517 58.028,165.684 55.5,167C 57.9584,170.933 57.625,174.433 54.5,177.5C 56.1132,177.968 57.6132,177.301 59,175.5C 59.7845,177.286 60.9512,178.786 62.5,180C 60.6385,181.028 59.3052,182.528 58.5,184.5C 60.0707,186.882 60.904,189.549 61,192.5C 62.8075,190.597 64.8075,188.93 67,187.5C 68.0299,187.836 68.5299,188.503 68.5,189.5C 61.8597,195.806 55.193,202.139 48.5,208.5C 43.9041,200.965 39.0707,193.631 34,186.5C 30.071,178.271 26.9043,169.604 24.5,160.5C 23.435,157.074 22.7683,153.574 22.5,150C 22.3049,147.648 22.9716,145.648 24.5,144C 22.9005,142.934 21.9005,141.434 21.5,139.5C 21.8151,136.477 23.1484,134.144 25.5,132.5C 25.0617,134.126 24.7284,135.793 24.5,137.5C 24.5378,140.187 25.5378,140.854 27.5,139.5C 28.6409,142.062 29.4743,144.728 30,147.5C 37.8333,139.667 45.6667,131.833 53.5,124C 54.1667,123.333 54.8333,123.333 55.5,124C 46.8333,132.667 38.1667,141.333 29.5,150C 30.2744,152.405 30.7744,154.905 31,157.5C 41.3449,146.638 51.8449,136.638 62.5,127.5C 53.181,137.319 43.681,146.986 34,156.5C 33.3333,158.5 33.3333,160.5 34,162.5C 34.414,162.957 34.914,163.291 35.5,163.5C 43.5206,155.812 51.5206,148.145 59.5,140.5 Z"/></g>
<g><path style="opacity:1" fill="#ff885d" d="M 250.5,102.5 C 251.75,102.577 252.583,103.244 253,104.5C 254.744,111.463 256.244,118.463 257.5,125.5C 259.626,148.744 256.126,171.077 247,192.5C 245.933,194.692 244.433,196.358 242.5,197.5C 246.068,189.788 248.901,181.788 251,173.5C 257.354,150.328 256.854,127.328 249.5,104.5C 249.833,103.833 250.167,103.167 250.5,102.5 Z"/></g>
<g><path style="opacity:1" fill="#ffb76f" d="M 74.5,136.5 C 76.1651,140.847 75.4985,144.847 72.5,148.5C 73.2739,149.711 74.1072,149.711 75,148.5C 74.7088,155.372 75.0421,162.372 76,169.5C 78.4624,165.565 80.4624,165.898 82,170.5C 83.7038,168.627 85.5372,166.96 87.5,165.5C 89.6516,166.077 89.985,167.244 88.5,169C 89.4367,171.707 90.7701,174.207 92.5,176.5C 89.6496,181.536 90.1496,182.203 94,178.5C 94.4643,179.094 94.631,179.761 94.5,180.5C 79.1667,194.833 63.8333,209.167 48.5,223.5C 48.9118,221.027 47.9118,219.694 45.5,219.5C 58.3066,206.835 71.4733,194.502 85,182.5C 84.9827,180.432 83.9827,178.766 82,177.5C 77.3314,181.337 72.8314,185.337 68.5,189.5C 68.5299,188.503 68.0299,187.836 67,187.5C 64.8075,188.93 62.8075,190.597 61,192.5C 60.904,189.549 60.0707,186.882 58.5,184.5C 59.3052,182.528 60.6385,181.028 62.5,180C 60.9512,178.786 59.7845,177.286 59,175.5C 57.6132,177.301 56.1132,177.968 54.5,177.5C 57.625,174.433 57.9584,170.933 55.5,167C 58.028,165.684 58.028,164.517 55.5,163.5C 49.1744,166.309 48.841,165.475 54.5,161C 53.6195,160.292 52.9528,159.458 52.5,158.5C 59.5,150.833 66.8333,143.5 74.5,136.5 Z"/></g>
<g><path style="opacity:1" fill="#ffa03b" d="M 17.5,130.5 C 16.7933,152.812 21.2933,173.812 31,193.5C 35.4633,198.399 39.4633,203.732 43,209.5C 43.4828,210.448 43.6495,211.448 43.5,212.5C 43.1667,213.5 42.5,214.167 41.5,214.5C 39.3181,208.968 36.6515,203.634 33.5,198.5C 32.1025,196.102 30.1025,194.435 27.5,193.5C 17.4766,173.692 14.1433,152.692 17.5,130.5 Z"/></g>
<g><path style="opacity:1" fill="#ffa571" d="M 180.5,172.5 C 172.194,180.14 164.194,188.14 156.5,196.5C 154.473,199.194 152.139,201.527 149.5,203.5C 147.766,201.91 146.6,199.91 146,197.5C 145.667,197.833 145.333,198.167 145,198.5C 144.517,197.552 144.351,196.552 144.5,195.5C 136.258,197.879 132.591,194.879 133.5,186.5C 133.505,184.304 133.838,182.304 134.5,180.5C 135.107,183.401 136.441,185.734 138.5,187.5C 137.031,189.105 137.365,189.605 139.5,189C 144.575,184.151 149.575,179.318 154.5,174.5C 155.15,174.804 155.817,175.137 156.5,175.5C 161.318,171.787 161.652,172.453 157.5,177.5C 157.808,178.308 158.308,178.975 159,179.5C 163.699,174.466 168.699,169.8 174,165.5C 175.719,168.288 177.885,170.621 180.5,172.5 Z"/></g>
<g><path style="opacity:1" fill="#ff8333" d="M 130.5,169.5 C 127.146,170.754 123.646,170.754 120,169.5C 117.049,171.447 114.382,173.781 112,176.5C 111.536,175.906 111.369,175.239 111.5,174.5C 113.63,172.873 115.63,171.04 117.5,169C 122.132,169.032 126.466,169.198 130.5,169.5 Z"/></g>
<g><path style="opacity:1" fill="#fffaf6" d="M 57.5,223.5 C 55.1667,225.5 52.8333,227.5 50.5,229.5C 48.1667,229.167 46.8333,227.833 46.5,225.5C 46.8333,224.5 47.5,223.833 48.5,223.5C 63.8333,209.167 79.1667,194.833 94.5,180.5C 96.4807,178.856 98.4807,177.19 100.5,175.5C 102.946,176.427 103.779,178.094 103,180.5C 87.4724,194.502 72.3057,208.836 57.5,223.5 Z"/></g>
<g><path style="opacity:1" fill="#fffbf7" d="M 45.5,219.5 C 44.5,220.167 43.5,220.833 42.5,221.5C 40.8333,220.5 39.5,219.167 38.5,217.5C 39.8333,216.833 40.8333,215.833 41.5,214.5C 42.5,214.167 43.1667,213.5 43.5,212.5C 44.5,212.167 45.1667,211.5 45.5,210.5C 46.7095,210.068 47.7095,209.401 48.5,208.5C 55.193,202.139 61.8597,195.806 68.5,189.5C 72.8314,185.337 77.3314,181.337 82,177.5C 83.9827,178.766 84.9827,180.432 85,182.5C 71.4733,194.502 58.3066,206.835 45.5,219.5 Z"/></g>
<g><path style="opacity:1" fill="#ff972b" d="M 33.5,69.5 C 33.5,71.5 33.5,73.5 33.5,75.5C 33.5,76.8333 33.5,78.1667 33.5,79.5C 32.5041,79.4142 31.6708,79.7476 31,80.5C 27.4896,88.1858 23.9896,95.8525 20.5,103.5C 18.5653,112.376 17.5653,121.376 17.5,130.5C 14.1433,152.692 17.4766,173.692 27.5,193.5C 30.1025,194.435 32.1025,196.102 33.5,198.5C 36.6515,203.634 39.3181,208.968 41.5,214.5C 40.8333,215.833 39.8333,216.833 38.5,217.5C 13.2896,183.944 5.78964,146.611 16,105.5C 19.4784,92.2129 25.3117,80.2129 33.5,69.5 Z"/></g>
<g><path style="opacity:1" fill="#ff6f39" d="M 153.5,173.5 C 154.167,173.5 154.5,173.833 154.5,174.5C 149.575,179.318 144.575,184.151 139.5,189C 137.365,189.605 137.031,189.105 138.5,187.5C 143.526,182.805 148.526,178.139 153.5,173.5 Z"/></g>
<g><path style="opacity:1" fill="#fffbf8" d="M 69.5,226.5 C 68.1667,227.167 67.1667,228.167 66.5,229.5C 65.1283,230.512 63.795,231.512 62.5,232.5C 61.8333,233.167 61.1667,233.833 60.5,234.5C 59.1667,235.167 58.1667,236.167 57.5,237.5C 55.8333,236.5 54.5,235.167 53.5,233.5C 54.8333,231.5 56.5,229.833 58.5,228.5C 71.4798,216.522 84.4798,204.522 97.5,192.5C 99.9456,193.427 100.779,195.094 100,197.5C 89.6351,207.033 79.4685,216.7 69.5,226.5 Z"/></g>
<g><path style="opacity:1" fill="#ffb97b" d="M 179.5,197.5 C 173.5,197.5 167.5,197.5 161.5,197.5C 161.5,212.5 161.5,227.5 161.5,242.5C 167.167,242.5 172.833,242.5 178.5,242.5C 178.5,242.833 178.5,243.167 178.5,243.5C 168.76,246.768 158.76,248.768 148.5,249.5C 151.877,248.61 154.877,246.943 157.5,244.5C 150.438,235.122 143.105,226.122 135.5,217.5C 140.473,213.194 145.14,208.527 149.5,203.5C 152.139,201.527 154.473,199.194 156.5,196.5C 163.68,194.538 171.014,194.038 178.5,195C 179.252,195.671 179.586,196.504 179.5,197.5 Z"/></g>
<g><path style="opacity:1" fill="#ffb472" d="M 108.5,151.5 C 108.401,154.673 109.068,157.673 110.5,160.5C 108.918,163.424 106.918,166.091 104.5,168.5C 106.938,169.931 108.604,171.931 109.5,174.5C 111.999,177.43 111.832,180.097 109,182.5C 108.784,180.616 108.117,178.949 107,177.5C 106.333,180.5 106.333,183.5 107,186.5C 108,185.5 109,184.5 110,183.5C 110.333,184.167 110.667,184.833 111,185.5C 114.667,181.833 118.333,178.167 122,174.5C 122.5,175 123,175.5 123.5,176C 121.167,178.333 118.833,180.667 116.5,183C 116.833,183.333 117.167,183.667 117.5,184C 114.755,186.745 112.421,189.079 110.5,191C 111.14,192.647 111.14,194.481 110.5,196.5C 110.833,197.167 111.167,197.833 111.5,198.5C 112.814,197.687 113.981,196.687 115,195.5C 115.595,196.899 115.428,198.232 114.5,199.5C 108.382,206.623 101.715,212.957 94.5,218.5C 94.2562,221.263 92.9229,223.429 90.5,225C 86.7563,227.205 83.5896,229.371 81,231.5C 77.2757,229.616 73.4423,227.949 69.5,226.5C 79.4685,216.7 89.6351,207.033 100,197.5C 100.779,195.094 99.9456,193.427 97.5,192.5C 84.4798,204.522 71.4798,216.522 58.5,228.5C 58.7845,226.585 58.4511,224.919 57.5,223.5C 72.3057,208.836 87.4724,194.502 103,180.5C 103.779,178.094 102.946,176.427 100.5,175.5C 98.4807,177.19 96.4807,178.856 94.5,180.5C 94.631,179.761 94.4643,179.094 94,178.5C 90.1496,182.203 89.6496,181.536 92.5,176.5C 90.7701,174.207 89.4367,171.707 88.5,169C 89.985,167.244 89.6516,166.077 87.5,165.5C 91.9634,160.535 96.6301,155.702 101.5,151C 103.847,150.666 106.181,150.833 108.5,151.5 Z"/></g>
<g><path style="opacity:1" fill="#ff6029" d="M 261.5,160.5 C 262.833,161.167 264.167,161.833 265.5,162.5C 260.561,187.379 249.561,209.046 232.5,227.5C 231.402,226.399 231.235,225.066 232,223.5C 234.772,219.612 237.272,215.612 239.5,211.5C 241.832,206.867 244.165,202.201 246.5,197.5C 247.5,197.5 248.5,197.5 249.5,197.5C 251.349,191.768 253.349,186.101 255.5,180.5C 257.808,176.503 259.141,172.17 259.5,167.5C 260.117,167.389 260.617,167.056 261,166.5C 261.495,164.527 261.662,162.527 261.5,160.5 Z"/></g>
<g><path style="opacity:1" fill="#ffaf6e" d="M 130.5,169.5 C 132.278,172.902 133.611,176.569 134.5,180.5C 133.838,182.304 133.505,184.304 133.5,186.5C 132.591,194.879 136.258,197.879 144.5,195.5C 144.351,196.552 144.517,197.552 145,198.5C 145.333,198.167 145.667,197.833 146,197.5C 146.6,199.91 147.766,201.91 149.5,203.5C 145.14,208.527 140.473,213.194 135.5,217.5C 132.14,221.527 128.473,225.194 124.5,228.5C 123.676,224.688 123.176,220.688 123,216.5C 117.031,221.467 111.365,226.801 106,232.5C 105.851,238.592 105.685,244.592 105.5,250.5C 97.4277,246.293 89.4277,241.793 81.5,237C 79.5,236.667 77.5,236.333 75.5,236C 72.6215,233.615 69.6215,231.448 66.5,229.5C 67.1667,228.167 68.1667,227.167 69.5,226.5C 73.4423,227.949 77.2757,229.616 81,231.5C 83.5896,229.371 86.7563,227.205 90.5,225C 92.9229,223.429 94.2562,221.263 94.5,218.5C 101.715,212.957 108.382,206.623 114.5,199.5C 115.428,198.232 115.595,196.899 115,195.5C 113.981,196.687 112.814,197.687 111.5,198.5C 111.167,197.833 110.833,197.167 110.5,196.5C 111.14,194.481 111.14,192.647 110.5,191C 112.421,189.079 114.755,186.745 117.5,184C 117.167,183.667 116.833,183.333 116.5,183C 118.833,180.667 121.167,178.333 123.5,176C 123,175.5 122.5,175 122,174.5C 118.333,178.167 114.667,181.833 111,185.5C 110.667,184.833 110.333,184.167 110,183.5C 109,184.5 108,185.5 107,186.5C 106.333,183.5 106.333,180.5 107,177.5C 108.117,178.949 108.784,180.616 109,182.5C 111.832,180.097 111.999,177.43 109.5,174.5C 110.167,174.5 110.833,174.5 111.5,174.5C 111.369,175.239 111.536,175.906 112,176.5C 114.382,173.781 117.049,171.447 120,169.5C 123.646,170.754 127.146,170.754 130.5,169.5 Z"/></g>
<g><path style="opacity:1" fill="#ffb170" d="M 179.5,197.5 C 179.833,197.5 180.167,197.5 180.5,197.5C 180.752,206.873 180.418,216.207 179.5,225.5C 178.548,231.075 178.214,236.741 178.5,242.5C 172.833,242.5 167.167,242.5 161.5,242.5C 161.5,227.5 161.5,212.5 161.5,197.5C 167.5,197.5 173.5,197.5 179.5,197.5 Z"/></g>
<g><path style="opacity:1" fill="#ffa66f" d="M 180.5,197.5 C 196.833,197.5 213.167,197.5 229.5,197.5C 230.833,197.5 232.167,197.5 233.5,197.5C 227.857,208.24 220.19,217.407 210.5,225C 200.168,224.191 189.835,224.358 179.5,225.5C 180.418,216.207 180.752,206.873 180.5,197.5 Z"/></g>
<g><path style="opacity:1" fill="#ffb872" d="M 124.5,228.5 C 119.036,234.465 113.37,240.298 107.5,246C 120.917,250.269 134.583,251.436 148.5,249.5C 158.76,248.768 168.76,246.768 178.5,243.5C 178.5,244.833 178.5,246.167 178.5,247.5C 164.814,252.469 150.647,254.802 136,254.5C 125.771,253.682 115.604,252.348 105.5,250.5C 105.685,244.592 105.851,238.592 106,232.5C 111.365,226.801 117.031,221.467 123,216.5C 123.176,220.688 123.676,224.688 124.5,228.5 Z"/></g>
<g><path style="opacity:1" fill="#ffbd7b" d="M 135.5,217.5 C 143.105,226.122 150.438,235.122 157.5,244.5C 154.877,246.943 151.877,248.61 148.5,249.5C 134.583,251.436 120.917,250.269 107.5,246C 113.37,240.298 119.036,234.465 124.5,228.5C 128.473,225.194 132.14,221.527 135.5,217.5 Z"/></g>
<g><path style="opacity:1" fill="#ff912b" d="M 45.5,219.5 C 47.9118,219.694 48.9118,221.027 48.5,223.5C 47.5,223.833 46.8333,224.5 46.5,225.5C 44.1667,225.167 42.8333,223.833 42.5,221.5C 43.5,220.833 44.5,220.167 45.5,219.5 Z"/></g>
<g><path style="opacity:1" fill="#ff9d6c" d="M 233.5,197.5 C 234.833,197.5 236.167,197.5 237.5,197.5C 226.19,216.753 210.523,231.419 190.5,241.5C 191.376,242.251 192.376,242.751 193.5,243C 188.474,245.181 183.474,247.348 178.5,249.5C 178.5,248.833 178.5,248.167 178.5,247.5C 178.5,246.167 178.5,244.833 178.5,243.5C 178.5,243.167 178.5,242.833 178.5,242.5C 178.214,236.741 178.548,231.075 179.5,225.5C 189.835,224.358 200.168,224.191 210.5,225C 220.19,217.407 227.857,208.24 233.5,197.5 Z"/></g>
<g><path style="opacity:1" fill="#ff9059" d="M 237.5,197.5 C 238.833,197.5 240.167,197.5 241.5,197.5C 239.101,202.734 236.935,208.068 235,213.5C 231.736,216.484 228.57,219.651 225.5,223C 224.5,223.333 223.5,223.667 222.5,224C 218.868,228.634 214.868,232.967 210.5,237C 207.412,238.875 204.079,240.208 200.5,241C 201.061,242.566 200.394,243.899 198.5,245C 196,245.375 193.667,246.208 191.5,247.5C 187.261,250.446 182.927,253.113 178.5,255.5C 178.5,254.5 178.5,253.5 178.5,252.5C 178.5,251.5 178.5,250.5 178.5,249.5C 183.474,247.348 188.474,245.181 193.5,243C 192.376,242.751 191.376,242.251 190.5,241.5C 210.523,231.419 226.19,216.753 237.5,197.5 Z"/></g>
<g><path style="opacity:1" fill="#ff6f2c" d="M 239.5,211.5 C 237.272,215.612 234.772,219.612 232,223.5C 231.235,225.066 231.402,226.399 232.5,227.5C 217.924,243.297 200.257,254.297 179.5,260.5C 179.5,259.167 179.5,257.833 179.5,256.5C 189.755,254.369 198.755,249.869 206.5,243C 205.542,241.853 205.875,240.853 207.5,240C 210.177,239.751 212.51,238.751 214.5,237C 221.074,231.096 226.908,224.596 232,217.5C 234.688,215.636 237.188,213.636 239.5,211.5 Z"/></g>
<g><path style="opacity:1" fill="#ff9636" d="M 57.5,223.5 C 58.4511,224.919 58.7845,226.585 58.5,228.5C 56.5,229.833 54.8333,231.5 53.5,233.5C 51.7376,232.738 50.7376,231.404 50.5,229.5C 52.8333,227.5 55.1667,225.5 57.5,223.5 Z"/></g>
<g><path style="opacity:1" fill="#ff7d44" d="M 257.5,125.5 C 258.943,131.1 259.61,136.933 259.5,143C 258.934,155.597 257.6,168.097 255.5,180.5C 253.349,186.101 251.349,191.768 249.5,197.5C 248.5,197.5 247.5,197.5 246.5,197.5C 244.165,202.201 241.832,206.867 239.5,211.5C 237.188,213.636 234.688,215.636 232,217.5C 226.908,224.596 221.074,231.096 214.5,237C 212.51,238.751 210.177,239.751 207.5,240C 205.875,240.853 205.542,241.853 206.5,243C 198.755,249.869 189.755,254.369 179.5,256.5C 179.5,257.833 179.5,259.167 179.5,260.5C 179.5,261.167 179.167,261.5 178.5,261.5C 178.5,260.5 178.5,259.5 178.5,258.5C 178.5,257.5 178.5,256.5 178.5,255.5C 182.927,253.113 187.261,250.446 191.5,247.5C 193.667,246.208 196,245.375 198.5,245C 200.394,243.899 201.061,242.566 200.5,241C 204.079,240.208 207.412,238.875 210.5,237C 214.868,232.967 218.868,228.634 222.5,224C 223.5,223.667 224.5,223.333 225.5,223C 228.57,219.651 231.736,216.484 235,213.5C 236.935,208.068 239.101,202.734 241.5,197.5C 241.833,197.5 242.167,197.5 242.5,197.5C 244.433,196.358 245.933,194.692 247,192.5C 256.126,171.077 259.626,148.744 257.5,125.5 Z"/></g>
<g><path style="opacity:1" fill="#ffac5c" d="M 66.5,229.5 C 69.6215,231.448 72.6215,233.615 75.5,236C 77.5,236.333 79.5,236.667 81.5,237C 89.4277,241.793 97.4277,246.293 105.5,250.5C 115.604,252.348 125.771,253.682 136,254.5C 150.647,254.802 164.814,252.469 178.5,247.5C 178.5,248.167 178.5,248.833 178.5,249.5C 178.5,250.5 178.5,251.5 178.5,252.5C 161.05,258.598 143.05,260.764 124.5,259C 117.79,257.216 111.29,255.049 105,252.5C 103.989,253.337 102.822,253.67 101.5,253.5C 101.719,252.325 101.386,251.325 100.5,250.5C 92.1668,247.063 84.1668,243.063 76.5,238.5C 75.8333,238.833 75.1667,239.167 74.5,239.5C 71.4324,235.405 67.4324,233.072 62.5,232.5C 63.795,231.512 65.1283,230.512 66.5,229.5 Z"/></g>
<g><path style="opacity:1" fill="#ffa149" d="M 62.5,232.5 C 67.4324,233.072 71.4324,235.405 74.5,239.5C 75.1667,239.167 75.8333,238.833 76.5,238.5C 84.1668,243.063 92.1668,247.063 100.5,250.5C 101.386,251.325 101.719,252.325 101.5,253.5C 102.822,253.67 103.989,253.337 105,252.5C 111.29,255.049 117.79,257.216 124.5,259C 143.05,260.764 161.05,258.598 178.5,252.5C 178.5,253.5 178.5,254.5 178.5,255.5C 178.5,256.5 178.5,257.5 178.5,258.5C 156.581,260.532 134.581,261.032 112.5,260C 109.077,260.145 107.077,258.645 106.5,255.5C 98.0923,251.862 89.4256,248.695 80.5,246C 74.8562,240.346 68.1896,236.513 60.5,234.5C 61.1667,233.833 61.8333,233.167 62.5,232.5 Z"/></g>
<g><path style="opacity:1" fill="#ff902f" d="M 60.5,234.5 C 68.1896,236.513 74.8562,240.346 80.5,246C 89.4256,248.695 98.0923,251.862 106.5,255.5C 107.077,258.645 109.077,260.145 112.5,260C 134.581,261.032 156.581,260.532 178.5,258.5C 178.5,259.5 178.5,260.5 178.5,261.5C 133.813,274.412 93.4801,266.412 57.5,237.5C 58.1667,236.167 59.1667,235.167 60.5,234.5 Z"/></g>
</svg>
