<svg width="20" height="19" viewBox="0 0 20 19" fill="none" xmlns="http://www.w3.org/2000/svg">
<path d="M9.12858 1.68308C9.40358 0.838834 10.598 0.838834 10.8721 1.68308L12.2645 5.96758C12.3244 6.15136 12.4409 6.3115 12.5973 6.4251C12.7537 6.53869 12.942 6.59994 13.1353 6.60008H17.6407C18.529 6.60008 18.8975 7.73675 18.1797 8.25925L14.5351 10.9066C14.3785 11.0204 14.262 11.1809 14.2022 11.3649C14.1425 11.549 14.1425 11.7473 14.2023 11.9314L15.5938 16.2159C15.8688 17.0611 14.9017 17.7633 14.184 17.2407L10.5393 14.5934C10.3827 14.4795 10.194 14.4182 10.0003 14.4182C9.80667 14.4182 9.61798 14.4795 9.46133 14.5934L5.81666 17.2407C5.09891 17.7633 4.13183 17.0602 4.40683 16.2159L5.79833 11.9314C5.85817 11.7473 5.8582 11.549 5.79843 11.3649C5.73866 11.1809 5.62214 11.0204 5.46558 10.9066L1.82091 8.25925C1.10225 7.73675 1.47258 6.60008 2.35992 6.60008H6.86442C7.05788 6.60013 7.24639 6.53898 7.40298 6.42536C7.55957 6.31175 7.67619 6.15151 7.73616 5.96758L9.12858 1.68308Z" fill="#A3A9BA" stroke="#A3A9BA" stroke-width="1.5" stroke-linecap="round" stroke-linejoin="round"/>
</svg>
