<svg width="256" height="256" viewBox="0 0 256 256" fill="none" xmlns="http://www.w3.org/2000/svg">
<path d="M128 256.006C198.692 256.006 256 198.698 256 128.006C256 57.3131 198.692 0.00610352 128 0.00610352C57.308 0.00610352 0 57.3131 0 128.006C0 198.698 57.308 256.006 128 256.006Z" fill="url(#paint0_linear_2_40)"/>
<path d="M88.897 120.994L87.788 122.696C75.277 141.889 78.071 167.024 94.506 183.127C104.175 192.601 116.847 197.339 129.519 197.34L88.897 120.994Z" fill="#00A3FF"/>
<path opacity="0.6" d="M129.507 144.197L88.885 120.994L129.507 197.34V144.197ZM170.186 120.994L171.296 122.696C183.807 141.889 181.012 167.024 164.577 183.127C154.909 192.601 142.237 197.339 129.564 197.34L170.186 120.994V120.994Z" fill="#00A3FF"/>
<path opacity="0.2" d="M129.561 144.197L170.182 120.994L129.561 197.34V144.197ZM129.573 92.3611V132.381L164.564 112.384L129.573 92.3611V92.3611Z" fill="#00A3FF"/>
<path opacity="0.6" d="M129.563 92.3611L94.547 112.383L129.563 132.381V92.3611V92.3611Z" fill="#00A3FF"/>
<path d="M129.563 58.7051L94.547 112.396L129.563 92.3181V58.7051Z" fill="#00A3FF"/>
<path opacity="0.6" d="M129.573 92.3111L164.591 112.39L129.573 58.6721V92.3121V92.3111Z" fill="#00A3FF"/>
<defs>
<linearGradient id="paint0_linear_2_40" x1="54.5" y1="23" x2="199.5" y2="227" gradientUnits="userSpaceOnUse">
<stop stop-color="#F1F1F1"/>
<stop offset="1" stop-color="#E3E8FF" stop-opacity="0.97"/>
</linearGradient>
</defs>
</svg>
