<svg width="20" height="20" viewBox="0 0 20 20" fill="none" xmlns="http://www.w3.org/2000/svg">
<path d="M10.416 1V2V1ZM10.416 18V19V18ZM18.9784 10H18.027H18.9784ZM2.8049 10H1.85352H2.8049ZM16.4706 16.364L15.7979 15.657L16.4706 16.364ZM5.03399 4.343L4.36136 3.636L5.03399 4.343ZM16.4706 3.636L15.7979 4.343L16.4706 3.636ZM5.03399 15.657L4.36136 16.364L5.03399 15.657ZM14.2215 10C14.2215 11.0609 13.8206 12.0783 13.1069 12.8284C12.3932 13.5786 11.4253 14 10.416 14C9.40668 14 8.43873 13.5786 7.72505 12.8284C7.01137 12.0783 6.61043 11.0609 6.61043 10C6.61043 8.93913 7.01137 7.92172 7.72505 7.17157C8.43873 6.42143 9.40668 6 10.416 6C11.4253 6 12.3932 6.42143 13.1069 7.17157C13.8206 7.92172 14.2215 8.93913 14.2215 10V10Z" stroke="#A3A9BA" stroke-width="2" stroke-linecap="round" stroke-linejoin="round"/>
</svg>
