<svg width="40" height="40" viewBox="0 0 40 40" fill="none" xmlns="http://www.w3.org/2000/svg">
  <g clip-path="url(#clip0_324_77)">
    <path
      d="M20 39.9999C31.0457 39.9999 40 31.0457 40 20.0001C40 8.95448 31.0457 0.000244141 20 0.000244141C8.9543 0.000244141 0 8.95448 0 20.0001C0 31.0457 8.9543 39.9999 20 39.9999Z"
      fill="white" />
    <path
      d="M20.0003 40C18.6463 40.0006 17.2957 39.8645 15.969 39.5938C12.1376 38.8054 8.62184 36.9101 5.85748 34.1425C4.03278 32.3192 2.57744 30.1604 1.5714 27.7851C1.05998 26.5753 0.669637 25.318 0.406083 24.0312C-0.135686 21.3713 -0.135686 18.6293 0.406083 15.9694C0.930088 13.4112 1.95259 10.9812 3.41529 8.81799C5.5858 5.60239 8.64242 3.08536 12.2147 1.57195C13.4245 1.06027 14.682 0.669872 15.9689 0.406497C18.6287 -0.135499 21.3706 -0.135499 24.0304 0.406497C26.5886 0.93057 29.0186 1.95309 31.1817 3.41581C34.3972 5.58651 36.9141 8.64324 38.4275 12.2155C38.9389 13.4253 39.3292 14.6827 39.5928 15.9694C40.1346 18.6293 40.1346 21.371 39.5928 24.0309C39.0689 26.5891 38.0464 29.0191 36.5836 31.1823C34.4128 34.3976 31.3564 36.9145 27.7845 38.4284C26.5747 38.9397 25.3172 39.33 24.0304 39.5935C22.7042 39.8642 21.3539 40.0005 20.0003 40V40ZM20.0003 0.469057C18.6782 0.468723 17.3594 0.601643 16.0639 0.865783C13.5654 1.37734 11.1921 2.37591 9.07952 3.8046C5.93913 5.92443 3.48097 8.90958 2.00295 12.3983C1.50352 13.5798 1.12228 14.8077 0.864819 16.0643C0.335714 18.6619 0.335714 21.3394 0.864819 23.9369C1.37643 26.4354 2.37508 28.8088 3.80374 30.9214C5.92356 34.0617 8.90875 36.5197 12.3975 37.9974C13.579 38.4968 14.8071 38.8781 16.0637 39.1354C18.6612 39.6644 21.3387 39.6644 23.9362 39.1354C26.4347 38.6238 28.8079 37.6251 30.9206 36.1966C34.0608 34.0766 36.5189 31.0915 37.997 27.6029C38.4964 26.4215 38.8777 25.1935 39.1351 23.9369C39.6642 21.3394 39.6642 18.6619 39.1351 16.0643C38.6234 13.5659 37.6248 11.1928 36.1962 9.08014C34.0763 5.93993 31.0911 3.48187 27.6025 2.00377C26.4209 1.50452 25.1928 1.12332 23.9362 0.865783C22.6409 0.601657 21.3223 0.468737 20.0003 0.469057V0.469057Z"
      fill="#FF007A" />
    <path
      d="M15.494 9.16617C15.179 9.11726 15.1659 9.11163 15.314 9.08804C15.7899 9.06044 16.2672 9.10255 16.7309 9.21304C17.809 9.46944 18.7915 10.1265 19.8403 11.2933L20.1187 11.6033L20.517 11.5393C22.1457 11.2633 23.8196 11.4734 25.3295 12.1435C25.7132 12.3179 26.0782 12.5308 26.4189 12.7789C26.4705 12.9151 26.5042 13.0573 26.5194 13.2021C26.6255 13.9052 26.5723 14.4438 26.3575 14.8463C26.2405 15.065 26.2339 15.1347 26.3125 15.3221C26.3499 15.3995 26.4082 15.465 26.4809 15.5109C26.5536 15.5569 26.6377 15.5816 26.7237 15.5822C27.0786 15.5822 27.4605 15.0082 27.6375 14.2102L27.7076 13.8932L27.847 14.0508C28.6108 14.9161 29.2106 16.0961 29.3137 16.9361L29.3406 17.1549L29.2123 16.9558C29.0281 16.6515 28.7799 16.3908 28.4851 16.1917C27.9726 15.8527 27.4309 15.7372 25.9959 15.6616C24.7 15.5933 23.9665 15.4827 23.2392 15.2455C22.0019 14.8421 21.3781 14.3047 19.9081 12.3763C19.4687 11.7675 18.9812 11.195 18.4503 10.6641C17.5376 9.79819 16.6414 9.34413 15.494 9.16617V9.16617Z"
      fill="#FF007A" />
    <path
      d="M26.711 11.0777C26.7161 10.6319 26.8067 10.1911 26.9778 9.77942C27.0124 9.69235 27.0556 9.60897 27.1067 9.53052C27.0972 9.6077 27.077 9.68319 27.0469 9.75489C26.928 10.1877 26.9095 10.642 26.9928 11.083C27.0922 11.7605 27.1491 11.8583 27.865 12.5902C28.2008 12.9339 28.5916 13.3664 28.7333 13.5522L28.9908 13.8902L28.7333 13.6486C28.3563 13.3033 27.9555 12.9849 27.5341 12.6955C27.4269 12.6403 27.411 12.6413 27.3447 12.7071C27.2838 12.7677 27.271 12.8589 27.2624 13.29C27.2492 13.9619 27.1577 14.3931 26.9366 14.8242C26.8172 15.0575 26.7981 15.0077 26.9064 14.7444C26.9872 14.5478 26.9955 14.4614 26.9949 13.8111C26.9935 12.5042 26.8386 12.1902 25.9286 11.6519C25.698 11.5155 25.3183 11.3189 25.0849 11.2144C24.9427 11.1573 24.8048 11.09 24.6724 11.013C25.1045 11.1045 25.5291 11.2285 25.9425 11.3838C26.4738 11.5882 26.5614 11.6146 26.626 11.5899C26.6689 11.5746 26.6899 11.4486 26.711 11.0777V11.0777Z"
      fill="#FF007A" />
    <path
      d="M16.106 13.3141C15.4666 12.4338 15.071 11.0847 15.1566 10.0752L15.183 9.7627L15.3285 9.78926C15.6656 9.86285 15.9906 9.98384 16.2938 10.1486C16.8994 10.5164 17.1615 11.0007 17.4282 12.2439C17.5063 12.6081 17.609 13.0202 17.656 13.1597C17.8176 13.5422 18.0172 13.9074 18.2519 14.2498C18.4201 14.4952 18.3083 14.6114 17.9371 14.578C17.3701 14.5267 16.6016 13.9964 16.106 13.3141V13.3141Z"
      fill="#FF007A" />
    <path
      d="M25.9363 19.8655C22.9483 18.6624 21.896 17.6182 21.896 15.8562C21.8895 15.6988 21.8961 15.5411 21.9156 15.3848C22.0056 15.442 22.0915 15.5056 22.1725 15.5749C22.7783 16.0609 23.4569 16.2684 25.3353 16.5426C26.4406 16.7037 27.0625 16.834 27.6364 17.0243C29.4602 17.6291 30.5885 18.8566 30.8575 20.5283C30.9288 21.1549 30.8972 21.7889 30.7638 22.4052C30.6636 22.7844 30.3575 23.4677 30.2774 23.4941C30.2549 23.5014 30.2328 23.416 30.2271 23.2981C30.2031 22.9704 30.1126 22.6509 29.9612 22.3592C29.8098 22.0675 29.6007 21.8097 29.3464 21.6014C28.7392 21.0811 27.9255 20.6666 25.9363 19.8655V19.8655Z"
      fill="#FF007A" />
    <path
      d="M23.8379 20.3655C23.8027 20.152 23.7545 19.9409 23.6936 19.7333L23.6172 19.5061L23.7589 19.6652C23.976 19.9225 24.1398 20.2203 24.241 20.5414C24.3411 20.8275 24.3524 20.9127 24.3516 21.3775C24.3516 21.8339 24.3383 21.9297 24.2457 22.1872C24.1169 22.5663 23.9009 22.9099 23.615 23.1903C23.0693 23.7459 22.3675 24.0534 21.3549 24.1809C21.1788 24.2031 20.6658 24.2404 20.2143 24.2639C19.0775 24.3231 18.3294 24.4451 17.6572 24.6812C17.5967 24.7081 17.5317 24.7236 17.4655 24.727C17.4383 24.7001 17.896 24.4272 18.2741 24.2451C18.8071 23.9884 19.3377 23.8481 20.5266 23.6503C21.1139 23.5525 21.7204 23.4337 21.8744 23.3864C23.3294 22.9405 24.0772 21.7897 23.8379 20.3655V20.3655Z"
      fill="#FF007A" />
    <path
      d="M25.2075 22.798C24.8105 21.9446 24.7194 21.1207 24.9369 20.3523C24.96 20.2702 24.9975 20.2029 25.02 20.2029C25.0946 20.23 25.1648 20.2679 25.2283 20.3155C25.4111 20.4385 25.7781 20.6462 26.7556 21.1791C27.9753 21.8441 28.6708 22.3591 29.1437 22.9474C29.5627 23.4734 29.8364 24.1002 29.9375 24.765C29.9993 25.3618 29.974 25.9644 29.8625 26.5539C29.7225 27.161 29.4564 27.7319 29.0814 28.2294C28.7063 28.7269 28.2308 29.14 27.6858 29.4417C27.5832 29.5008 27.4771 29.5535 27.368 29.5994C27.3942 29.4841 27.4376 29.3735 27.4969 29.2712C27.6768 28.9114 27.7813 28.5185 27.8038 28.1168C27.8263 27.7151 27.7664 27.313 27.6278 26.9353C27.4586 26.4286 27.1134 25.8103 26.4164 24.7649C25.6056 23.5499 25.4069 23.2266 25.2075 22.798V22.798Z"
      fill="#FF007A" />
    <path
      d="M13.9841 27.4023C15.0934 26.4661 16.4726 25.8011 17.7294 25.5969C18.3775 25.513 19.0351 25.5385 19.6748 25.6722C20.4787 25.878 21.1978 26.3387 21.5719 26.8878C21.9373 27.4244 22.0942 27.892 22.2573 28.9323C22.3219 29.3426 22.3919 29.7548 22.4136 29.8481C22.5362 30.3873 22.7747 30.8184 23.0698 31.0348C23.5394 31.3785 24.3481 31.3998 25.1436 31.0896C25.2264 31.0512 25.3139 31.024 25.4039 31.0087C25.4328 31.0373 25.0322 31.3056 24.7497 31.4462C24.4164 31.6248 24.0432 31.7154 23.6651 31.7096C22.9366 31.7096 22.3317 31.339 21.827 30.5832C21.6414 30.2638 21.4758 29.9332 21.3309 29.5934C20.7981 28.3779 20.5348 28.0078 19.9162 27.6025C19.661 27.4298 19.3661 27.3245 19.0591 27.2966C18.7522 27.2687 18.4432 27.319 18.1609 27.4428C18.0019 27.5167 17.8622 27.6263 17.7525 27.7632C17.6429 27.9 17.5664 28.0603 17.5291 28.2316C17.4917 28.4029 17.4944 28.5806 17.537 28.7506C17.5797 28.9207 17.6611 29.0786 17.7748 29.212C18.0044 29.4507 18.3054 29.608 18.6323 29.6603C18.7624 29.6776 18.8947 29.6667 19.0202 29.6284C19.1457 29.5901 19.2616 29.5253 19.3598 29.4383C19.4581 29.3513 19.5365 29.2442 19.5897 29.1243C19.643 29.0043 19.6698 28.8743 19.6684 28.7431C19.6684 28.3778 19.5278 28.1694 19.1745 28.0097C18.6919 27.7919 18.173 28.0465 18.1753 28.5C18.1717 28.5883 18.197 28.6754 18.2474 28.748C18.2978 28.8207 18.3705 28.8749 18.4545 28.9025C18.5795 28.9589 18.5817 28.9633 18.4803 28.9422C18.0373 28.8503 17.9334 28.3162 18.2898 27.9617C18.7173 27.5361 19.6023 27.7239 19.9053 28.3054C20.0354 28.6324 20.0465 28.9946 19.9366 29.3289C19.6876 29.9851 18.9619 30.3311 18.2256 30.1431C17.7244 30.0151 17.5201 29.8765 16.9159 29.254C15.8658 28.1723 15.4581 27.9626 13.9442 27.7264L13.6541 27.6811L13.9841 27.4023Z"
      fill="#FF007A" />
    <path fill-rule="evenodd" clip-rule="evenodd"
      d="M9.74072 8.32736C13.2478 12.5839 14.9792 14.0539 15.2476 14.4248C15.4692 14.7312 15.3859 15.0065 15.0062 15.2217C14.7374 15.3582 14.4444 15.4407 14.1438 15.4643C13.8725 15.4535 13.6147 15.3432 13.4195 15.1545C13.277 15.0193 12.7017 14.1603 11.3735 12.0995C10.3579 10.5227 9.50697 9.2147 9.48369 9.19329C9.43009 9.14266 9.43103 9.14438 11.2699 12.4347C12.4246 14.5007 12.8145 15.2315 12.8145 15.3289C12.8145 15.5275 12.7603 15.632 12.5151 15.9054C12.1065 16.3614 11.9238 16.8742 11.792 17.9335C11.6442 19.121 11.2285 19.961 10.0767 21.3976C9.40244 22.2385 9.29197 22.3927 9.12197 22.7316C8.92171 23.1013 8.8195 23.5162 8.82509 23.9366C8.79083 24.4392 8.85815 24.9435 9.02306 25.4194C9.18977 25.9268 9.43208 26.4062 9.74181 26.8413C10.0928 27.3849 10.2949 27.7888 10.2949 27.9469C10.2949 28.0719 10.319 28.0728 10.8629 27.9499C12.1645 27.6561 13.2215 27.1391 13.816 26.5055C14.1838 26.1133 14.2703 25.8969 14.2731 25.3594C14.2749 25.008 14.2626 24.9344 14.1676 24.7322C14.0129 24.4032 13.7313 24.1296 13.1109 23.7054C12.2984 23.1496 11.9506 22.7021 11.8546 22.0868C11.7765 21.5818 11.8673 21.2255 12.317 20.2827C12.7826 19.307 12.8979 18.891 12.976 17.9078C13.0265 17.2724 13.0962 17.0217 13.2788 16.8206C13.4693 16.6107 13.6407 16.5393 14.112 16.4754C14.8803 16.3704 15.3695 16.1717 15.7717 15.801C15.9325 15.6667 16.0621 15.499 16.1515 15.3094C16.2408 15.1199 16.2878 14.9131 16.289 14.7036L16.306 14.3501L16.111 14.1228C15.4034 13.299 9.26791 7.68018 9.22447 7.68018C9.21525 7.68018 9.4476 7.97158 9.74072 8.32736V8.32736ZM10.6907 24.5807C10.7677 24.4443 10.7906 24.284 10.755 24.1315C10.7194 23.979 10.6279 23.8455 10.4985 23.7572C10.2462 23.5894 9.85431 23.6683 9.85431 23.8871C9.85431 23.9538 9.89119 24.0022 9.97431 24.045C10.1149 24.1171 10.1245 24.198 10.0143 24.3636C9.90416 24.5293 9.91181 24.6786 10.0396 24.7788C10.2454 24.94 10.5373 24.8519 10.6907 24.5807V24.5807Z"
      fill="#FF007A" />
    <path fill-rule="evenodd" clip-rule="evenodd"
      d="M16.7891 16.6602C16.5924 16.7352 16.4158 16.855 16.2735 17.0101C16.1312 17.1653 16.027 17.3515 15.9692 17.5539C15.903 17.7984 15.9406 18.2273 16.0399 18.3597C16.2002 18.5737 16.3549 18.63 16.7742 18.6272C17.5956 18.6214 18.3097 18.2692 18.3927 17.8288C18.4608 17.4678 18.1471 16.9675 17.7152 16.748C17.4219 16.628 17.0997 16.5975 16.7891 16.6602V16.6602ZM17.7492 17.4102C17.876 17.2302 17.8205 17.0352 17.6052 16.9042C17.1949 16.6542 16.5739 16.8609 16.5739 17.248C16.5739 17.4409 16.8974 17.6514 17.1939 17.6514C17.4034 17.647 17.6027 17.5606 17.7492 17.4109V17.4102Z"
      fill="#FF007A" />
  </g>
  <defs>
    <clipPath id="clip0_324_77">
      <rect width="40" height="40" fill="white" />
    </clipPath>
  </defs>
</svg>