<svg width="20" height="19" viewBox="0 0 20 19" fill="none" xmlns="http://www.w3.org/2000/svg">
<path d="M11 7.875V4.75C11 3.75544 11.3951 2.80161 12.0983 2.09835C12.8016 1.39509 13.7554 1 14.75 1C15.7446 1 16.6984 1.39509 17.4016 2.09835C18.1049 2.80161 18.5 3.75544 18.5 4.75V7.875M2.875 17.25H11.625C12.1223 17.25 12.5992 17.0525 12.9508 16.7008C13.3025 16.3492 13.5 15.8723 13.5 15.375V9.75C13.5 9.25272 13.3025 8.77581 12.9508 8.42417C12.5992 8.07254 12.1223 7.875 11.625 7.875H2.875C2.37772 7.875 1.90081 8.07254 1.54917 8.42417C1.19754 8.77581 1 9.25272 1 9.75V15.375C1 15.8723 1.19754 16.3492 1.54917 16.7008C1.90081 17.0525 2.37772 17.25 2.875 17.25Z" stroke="#A3A9BA" stroke-width="2" stroke-linecap="round" stroke-linejoin="round"/>
</svg>
