<svg width="100" height="100" viewBox="0 0 100 100" fill="none" xmlns="http://www.w3.org/2000/svg">
  <path
    d="M50 100C77.6141 100 100 77.6141 100 50C100 22.3859 77.6141 0 50 0C22.3859 0 0 22.3855 0 50C0 77.6141 22.3855 100 50 100Z"
    fill="white" />
  <path d="M51 65.425V81L72 53.875L51 65.425ZM71.2367 48.7992L51 18V40.3994L71.2367 48.7992Z" fill="#3B3735" />
  <path d="M51 42V61L71 50.3668L51 42V42Z" fill="#1F1D19" />
  <path d="M29 49L49 18V40.5455L29 49V49Z" fill="#959190" />
  <path d="M49 42V61L29 50.3668L49 42V42Z" fill="#403C3A" />
  <path d="M49 65.4968V81L28 54L49 65.4968Z" fill="#959190" />
</svg>