<svg width="140" height="140" viewBox="0 0 140 140" fill="none" xmlns="http://www.w3.org/2000/svg">
<circle cx="70" cy="70" r="70" fill="url(#paint0_linear_978_185)"/>
<path d="M79.5833 85.3334H89.1666V81.5001C89.1666 78.3244 86.5923 75.7501 83.4166 75.7501C81.5851 75.7501 79.9535 76.6064 78.9005 77.9406M79.5833 85.3334H60.4166M79.5833 85.3334V81.5001C79.5833 80.2423 79.341 79.0411 78.9005 77.9406M60.4166 85.3334H50.8333V81.5001C50.8333 78.3244 53.4077 75.7501 56.5833 75.7501C58.4149 75.7501 60.0465 76.6064 61.0995 77.9406M60.4166 85.3334V81.5001C60.4166 80.2423 60.659 79.0411 61.0995 77.9406M61.0995 77.9406C62.5125 74.4104 65.965 71.9167 70 71.9167C74.0349 71.9167 77.4874 74.4104 78.9005 77.9406M75.75 60.4167C75.75 63.5924 73.1756 66.1667 70 66.1667C66.8243 66.1667 64.25 63.5924 64.25 60.4167C64.25 57.2411 66.8243 54.6667 70 54.6667C73.1756 54.6667 75.75 57.2411 75.75 60.4167ZM87.25 66.1667C87.25 68.2838 85.5337 70.0001 83.4166 70.0001C81.2996 70.0001 79.5833 68.2838 79.5833 66.1667C79.5833 64.0497 81.2996 62.3334 83.4166 62.3334C85.5337 62.3334 87.25 64.0497 87.25 66.1667ZM60.4166 66.1667C60.4166 68.2838 58.7004 70.0001 56.5833 70.0001C54.4662 70.0001 52.75 68.2838 52.75 66.1667C52.75 64.0497 54.4662 62.3334 56.5833 62.3334C58.7004 62.3334 60.4166 64.0497 60.4166 66.1667Z" stroke="#748FF1" stroke-width="4" stroke-linecap="round" stroke-linejoin="round"/>
<defs>
<linearGradient id="paint0_linear_978_185" x1="0" y1="70" x2="140" y2="70" gradientUnits="userSpaceOnUse">
<stop stop-color="#CFD9DF"/>
<stop offset="1" stop-color="#E2EBF0"/>
</linearGradient>
</defs>
</svg>
